<svg id="Шар_1" data-name="Шар 1" xmlns="http://www.w3.org/2000/svg" viewBox="0 0 20 17"><defs><style>.cls-1{fill:#fffaf5;}</style></defs><title>social_1</title><path class="cls-1" d="M17.94,4.23a5.24,5.24,0,0,1,0,.56C18,10.47,13.83,17,6.29,17A11.23,11.23,0,0,1,0,15.07a8.1,8.1,0,0,0,1,0,8,8,0,0,0,5.09-1.83,4.13,4.13,0,0,1-3.83-3,6.32,6.32,0,0,0,.77.06,4.26,4.26,0,0,0,1.08-.14A4.26,4.26,0,0,1,.81,6V6a3.91,3.91,0,0,0,1.85.54A4.32,4.32,0,0,1,.84,2.94,4.37,4.37,0,0,1,1.4.78,11.5,11.5,0,0,0,9.85,5.27a4.62,4.62,0,0,1-.1-1A4.19,4.19,0,0,1,13.85,0a4,4,0,0,1,3,1.35,7.88,7.88,0,0,0,2.6-1,4.22,4.22,0,0,1-1.8,2.37A8,8,0,0,0,20,2,9.08,9.08,0,0,1,17.94,4.23Z"/></svg>