<svg id="Шар_1" data-name="Шар 1" xmlns="http://www.w3.org/2000/svg" viewBox="0 0 19.71 19.71"><defs><style>.cls-1{fill:#fffaf5;fill-rule:evenodd;}</style></defs><title>social_4</title><path class="cls-1" d="M19.64,5.79a5.79,5.79,0,0,0-1.59-4.13A5.83,5.83,0,0,0,13.92.07C12.29,0,7.42,0,5.79.07A5.86,5.86,0,0,0,1.66,1.65,5.86,5.86,0,0,0,.07,5.79C0,7.41,0,12.29.07,13.92a5.79,5.79,0,0,0,1.59,4.13,5.85,5.85,0,0,0,4.13,1.59c1.63.09,6.5.09,8.13,0a5.79,5.79,0,0,0,4.13-1.59,5.88,5.88,0,0,0,1.59-4.13C19.73,12.29,19.73,7.42,19.64,5.79Zm-4.52,0a1.18,1.18,0,1,0-1.18-1.19A1.18,1.18,0,0,0,15.12,5.78Zm-5.26-1a5.06,5.06,0,1,0,5.05,5.06A5.05,5.05,0,0,0,9.86,4.8Zm0,8.34a3.29,3.29,0,1,1,3.28-3.29A3.29,3.29,0,0,1,9.86,13.14Zm5.81,4.4a3.34,3.34,0,0,0,1.87-1.87,17.74,17.74,0,0,0,.4-5.11c0-.26,0-.5,0-.7s0-.45,0-.71A17.77,17.77,0,0,0,17.54,4a3.37,3.37,0,0,0-1.87-1.87,18.1,18.1,0,0,0-5.11-.4H9.14a17.59,17.59,0,0,0-5.09.4A3.31,3.31,0,0,0,2.18,4a18.25,18.25,0,0,0-.41,5.13c0,.25,0,.49,0,.69s0,.44,0,.7a17.74,17.74,0,0,0,.41,5.11,3.31,3.31,0,0,0,1.87,1.87,18.1,18.1,0,0,0,5.11.4h1.42A17.59,17.59,0,0,0,15.67,17.54Z" transform="translate(0 0)"/></svg>