<svg width="28" height="50" viewBox="0 0 28 50" fill="none" xmlns="http://www.w3.org/2000/svg">
<path d="M9.98607 0.0493164L10.0062 11.0941L10.0264 22.1388L10.9483 19.5748V19.5684L12.1442 44.156C10.9684 47.417 10.3402 49.1591 10.3337 49.1655C10.3272 49.1719 9.6592 49.2116 8.85065 49.2507C6.4054 49.3692 3.37286 49.6255 1.06821 49.9081C0.533721 49.974 0.0793171 50.0067 0.0460968 49.9804C0.0128765 49.9542 0.00575733 38.7121 0.0128756 24.9918L0.0330448 0.0493164H9.98607Z" fill="#B1060F"/>
<path d="M27.9889 0.0176787V24.9865C27.9889 38.7202 27.9752 49.9687 27.9557 49.9885C27.9355 50.0084 27.0742 49.9225 26.0319 49.811C24.9896 49.6995 23.5534 49.5548 22.8386 49.4952C21.7429 49.403 18.4565 49.1992 18.0822 49.1928C17.9689 49.1928 17.9617 48.6341 17.9487 38.6151L17.9285 28.0374L17.1336 30.2464C17.0132 30.5885 16.9734 30.6936 16.853 31.0287L15.6571 6.44756C15.911 5.74409 15.7775 6.11247 16.0646 5.31034C17.0399 2.59512 17.8686 0.300818 17.9018 0.195735L17.9689 0.0118408H27.9889V0.0176787Z" fill="#B1060F"/>
<path d="M9.98607 0.0493164L10.0062 11.0941L10.0264 22.1388L10.9483 19.5748V19.5684L12.1442 44.156C10.9684 47.417 10.3402 49.1591 10.3337 49.1655C10.3272 49.1719 9.6592 49.2116 8.85065 49.2507C6.4054 49.3692 3.37286 49.6255 1.06821 49.9081C0.533721 49.974 0.0793171 50.0067 0.0460968 49.9804C0.0128765 49.9542 0.00575733 38.7121 0.0128756 24.9918L0.0330448 0.0493164H9.98607Z" fill="#B1060F"/>
<path d="M27.9889 0.0176787V24.9865C27.9889 38.7202 27.9752 49.9687 27.9557 49.9885C27.9355 50.0084 27.0742 49.9225 26.0319 49.811C24.9896 49.6995 23.5534 49.5548 22.8386 49.4952C21.7429 49.403 18.4565 49.1992 18.0822 49.1928C17.9689 49.1928 17.9617 48.6341 17.9487 38.6151L17.9285 28.0374L17.1336 30.2464C17.0132 30.5885 16.9734 30.6936 16.853 31.0287L15.6571 6.44756C15.911 5.74409 15.7775 6.11247 16.0646 5.31034C17.0399 2.59512 17.8686 0.300818 17.9018 0.195735L17.9689 0.0118408H27.9889V0.0176787Z" fill="#B1060F"/>
<path d="M27.9887 0.017652V14.0339L17.955 40.2257C17.955 39.6273 17.955 39.2987 17.9485 38.6151L17.9283 28.0373L17.1334 30.2464C12.7246 42.5533 10.3529 49.1537 10.3393 49.1671C10.3328 49.1735 9.6648 49.2132 8.85625 49.2523C6.41101 49.3708 3.37848 49.6271 1.07383 49.9097C0.539341 49.9756 0.084938 50.0083 0.0517178 49.9821C0.0315475 49.9622 0.0184956 44.453 0.0184956 36.6757L9.99879 8.41959L10.0053 11.0951L10.0255 22.1399L10.9473 19.5758C11.849 17.0708 12.4506 15.3947 16.0781 5.30973C17.0533 2.59451 17.882 0.300207 17.9153 0.195125L17.9823 0.0112305H27.9887V0.017652Z" fill="url(#paint0_radial)"/>
<path d="M27.9887 0.017652L17.9348 28.0566V28.0432L17.1399 30.2522C12.724 42.5527 10.3529 49.1531 10.3393 49.1665C10.3328 49.1729 9.66481 49.2126 8.85625 49.2517C6.41101 49.3702 3.37848 49.6265 1.07383 49.9091C0.54587 49.975 0.0849419 50.0077 0.0582485 49.9815L10.0255 22.1334V22.1399L10.9473 19.5758C11.849 17.0708 12.4506 15.3947 16.0781 5.30972C17.0533 2.59451 17.8821 0.300207 17.9153 0.195125L17.9823 0.0112305H22.9855L27.9887 0.017652Z" fill="#E50914"/>
<defs>
<radialGradient id="paint0_radial" cx="0" cy="0" r="1" gradientUnits="userSpaceOnUse" gradientTransform="translate(14.4913 24.7117) rotate(-161.178) scale(0.534966 19.3538)">
<stop/>
<stop offset="1" stop-opacity="0"/>
</radialGradient>
</defs>
</svg>
