<svg width="168" height="39" viewBox="0 0 168 39" fill="none" xmlns="http://www.w3.org/2000/svg">
<path d="M160.17 12.1457C160.17 14.2931 161.915 16.0711 164.073 16.0711C166.232 16.0711 168 14.2931 168 12.1457C168 9.9752 166.232 8.22032 164.073 8.22032C161.892 8.19722 160.17 9.9752 160.17 12.1457ZM161.065 12.1457C161.065 10.4139 162.374 9.05158 164.073 9.05158C165.75 9.05158 167.082 10.4139 167.082 12.1457C167.082 13.8775 165.773 15.2399 164.073 15.2399C162.374 15.2168 161.065 13.8544 161.065 12.1457ZM164.693 14.2239H165.819L164.969 12.5844C165.451 12.3766 165.796 11.9148 165.796 11.3606C165.796 10.5986 165.153 9.9752 164.349 9.9752H162.673V14.2239H163.683V12.7461H163.981L164.693 14.2239ZM163.66 11.9379V10.8296H164.142C164.533 10.8296 164.762 11.0374 164.762 11.3837C164.762 11.7301 164.533 11.9379 164.142 11.9379H163.66Z" fill="white"/>
<path d="M157.919 16.4636H152.89L147.976 21.7513V8.19714H144.141V30.6874H147.976V26.9236L149.56 25.238L153.303 30.6643H158.011L152.201 22.4209L157.919 16.4636Z" fill="white"/>
<path d="M142.717 16.4175C142.442 16.3944 142.166 16.4175 141.845 16.4175C140.651 16.4175 138.699 16.6946 137.849 18.588V16.4175H134.175V30.6875H137.964V24.199C137.964 21.128 139.548 19.9965 141.5 19.9965C141.845 19.9965 142.717 19.9965 142.717 19.9965V16.4175Z" fill="white"/>
<path d="M119.593 26.5312C119.593 28.7017 121.43 30.6875 124.439 30.6875C126.528 30.6875 127.883 30.0871 128.595 28.9788L128.733 30.6875H132.039V28.4477V21.659C132.039 18.8882 130.386 16.4175 125.908 16.4175C122.119 16.4175 120.098 18.7958 119.869 20.9663L123.244 21.659C123.359 20.4583 124.278 19.4193 125.931 19.4193C127.539 19.4193 128.319 20.2274 128.319 21.2203C128.319 21.7052 128.067 21.7514 127.263 21.8669L123.796 22.3748C121.453 22.6981 119.593 24.0605 119.593 26.5312ZM125.219 27.9166C123.979 27.9166 123.382 27.1315 123.382 26.3233C123.382 25.2612 124.163 24.7301 125.127 24.5915L128.296 24.1066V25.0764C128.319 27.501 126.827 27.9166 125.219 27.9166Z" fill="white"/>
<path d="M109.145 22.3286C109.237 20.7584 110.178 19.5577 111.763 19.5577C113.6 19.5577 114.358 20.8046 114.358 22.3979V30.6874H118.147V21.7282C118.147 18.611 116.493 16.4405 112.934 16.4405C111.602 16.4405 110.04 16.5559 109.145 17.6412V8.19714H105.356V30.6874H109.145V22.3286Z" fill="white"/>
<path d="M92.5424 26.5773C92.7261 28.1244 94.1498 30.6875 98.398 30.6875C102.118 30.6875 103.909 28.5169 103.909 26.3002C103.909 24.3145 102.508 22.6981 99.707 22.1439L97.6862 21.7283C96.9054 21.5898 96.4002 21.1741 96.4002 20.5276C96.4002 19.7656 97.204 19.1883 98.2143 19.1883C99.8218 19.1883 100.419 20.2043 100.534 21.0125L103.726 20.3198C103.542 18.8651 102.21 16.4175 98.1684 16.4175C95.1143 16.4175 92.8868 18.4264 92.8868 20.8509C92.8868 22.7443 94.1269 24.3145 96.8595 24.8917L98.7195 25.3074C99.8218 25.5383 100.235 26.0232 100.235 26.6235C100.235 27.3393 99.6381 27.9628 98.3751 27.9628C96.6988 27.9628 95.8721 26.9699 95.7802 25.9077L92.5424 26.5773Z" fill="white"/>
<path fill-rule="evenodd" clip-rule="evenodd" d="M88.6845 13.9005C88.6845 13.8774 88.6845 13.8543 88.6845 13.8312C88.6845 12.5613 89.7179 11.5222 91.0038 11.5222H91.8305V8.19714H89.9705C87.0771 8.19714 84.8956 10.3677 84.8956 13.4849V16.4174H82.5763V19.9964H84.8956V30.6874H88.6845V19.9964H91.8305V16.4405H88.6845V13.9005Z" fill="white"/>
<path d="M81.1526 16.4175C80.877 16.3944 80.6015 16.4175 80.28 16.4175C79.0859 16.4175 77.134 16.6946 76.2844 18.588V16.4175H72.6102V30.6875H76.3992V24.199C76.3992 21.128 77.9837 19.9965 79.9355 19.9965C80.28 19.9965 81.1526 19.9965 81.1526 19.9965V16.4175Z" fill="white"/>
<path d="M67.0072 30.6875H70.4746V28.1244V16.4175H66.6857V24.7301C66.6857 26.3695 65.6753 27.1546 63.999 27.1546C62.2308 27.1546 61.45 25.8846 61.45 24.2914V16.4175H57.6611V25.0764C57.6611 28.1706 59.59 30.6875 62.9656 30.6875C64.4353 30.6875 66.1116 30.4796 66.8923 29.1635L67.0072 30.6875Z" fill="white"/>
<path d="M55.9388 13.7158C55.4566 11.3144 53.4358 8.19714 48.2001 8.19714C44.1127 8.19714 40.6911 11.0604 40.6911 14.8472C40.6911 18.0568 42.9186 20.2273 46.3401 20.9201L49.3483 21.5204C51.0246 21.8437 51.9661 23.1598 51.9661 24.3836C51.9661 25.8845 50.7261 26.9929 48.4757 26.9929C45.4216 26.9929 43.9519 25.0995 43.7682 23.0213L39.8644 24.0373C40.2089 27.0622 42.7349 30.6874 48.4527 30.6874C53.4817 30.6874 56.2373 27.3854 56.2373 24.1296C56.2373 21.1279 54.1476 18.2646 50.2209 17.5257L47.2127 16.9485C45.6282 16.6483 44.8704 15.7247 44.8704 14.5471C44.8704 13.1385 46.2023 11.8455 48.2461 11.8455C50.9787 11.8455 51.9661 13.6696 52.1728 14.8472L55.9388 13.7158Z" fill="white"/>
<path fill-rule="evenodd" clip-rule="evenodd" d="M23.9279 0C24.8694 0.0230906 25.7649 0.0461812 26.5227 0.161634C28.1072 0.577265 29.5998 1.38544 30.3806 3.11723C30.4954 3.46359 30.6102 3.85613 30.6791 4.29485C30.7135 4.76239 30.748 5.3468 30.7824 5.93122C30.7939 6.12611 30.8054 6.32099 30.8169 6.51155C30.8398 6.90409 30.8628 7.29663 30.8858 7.61989V7.64298C31.1384 11.6607 31.2761 15.7709 31.3221 19.7194C31.0695 25.0302 26.4538 29.2327 23.3079 31.0568C17.7737 33.8046 12.4003 36.2753 7.87647 38.2611C3.07713 40.0391 0.895607 38.2611 0.183743 36.1599C0.0229991 35.5826 -0.0229276 35.0053 3.57688e-05 34.4512L0.390413 31.0107L0.459303 30.595C1.60747 23.3446 3.21491 13.3233 5.78681 5.56483C6.45274 3.74068 8.93279 0.323268 14.8114 0H23.9279ZM22.7797 7.20426C23.216 7.20426 23.5834 7.57371 23.5834 8.01243V10.5524C23.5834 10.6724 23.5586 10.7861 23.5138 10.8888C23.3863 11.1813 23.0967 11.3838 22.7567 11.3838C21.4055 11.3838 20.1868 11.9223 19.2955 12.7952C18.4316 13.6414 17.8753 14.8017 17.8043 16.0903C17.7992 16.1833 17.7966 16.2769 17.7966 16.3712V19.4423C17.7966 21.9694 16.7955 24.2574 15.1732 25.9323C13.4937 27.6678 11.1456 28.7479 8.54236 28.7479C8.10605 28.7479 7.73864 28.3785 7.73864 27.9397V25.3998C7.73864 25.3204 7.74952 25.2437 7.76985 25.1711C7.77908 25.1382 7.79027 25.1061 7.80328 25.0749C7.92814 24.7762 8.22092 24.5684 8.56537 24.5684C9.9552 24.5684 11.2144 23.995 12.1162 23.0669C12.9897 22.1667 13.5254 20.9355 13.5254 19.5809V16.5099C13.5254 16.402 13.5272 16.2946 13.5309 16.1875C13.7 11.1883 17.7886 7.20426 22.7797 7.20426Z" fill="white"/>
</svg>
