<svg width="51" height="28" viewBox="0 0 51 28" fill="none" xmlns="http://www.w3.org/2000/svg">
<path d="M23.1479 18.9765C23.1766 18.9765 23.1862 18.9862 23.2054 18.9862C23.6652 19.0539 24.1156 19.1314 24.4605 19.2863C24.7766 19.4315 24.9683 19.6058 25.1407 19.935C25.3994 20.4191 25.4186 21.1065 25.1791 21.6293C25.0066 22.0166 24.6138 22.3361 24.2689 22.5104C23.9048 22.6943 23.5407 22.7718 23.1287 22.8202C22.4005 22.8976 21.6245 22.7524 20.973 22.4329C20.5897 22.2393 20.1202 21.9198 19.8807 21.4938C19.7083 21.1839 19.7083 20.787 19.9286 20.4869C20.264 20.0221 20.9921 19.9156 21.5382 19.935C21.9502 19.9543 22.7071 20.0802 23.1 20.2254C23.2054 20.2642 23.6173 20.4288 23.6844 20.4965C23.7323 20.5449 23.7706 20.6224 23.7419 20.6902C23.6557 20.9709 22.985 21.1162 22.7838 21.1452C22.2664 21.2227 21.9981 21.029 21.4041 20.7967C21.2604 20.7386 21.0592 20.6708 20.9155 20.6611C20.6472 20.6321 20.3215 20.7095 20.2735 21.0097C20.2448 21.1646 20.4268 21.3001 20.561 21.3679C20.8772 21.5034 21.1358 21.5519 21.4424 21.5615C22.3622 21.5809 23.397 21.426 24.1443 20.8838C24.2497 20.8064 24.3455 20.6999 24.3455 20.5643C24.3455 20.2835 23.8664 20.1189 23.8664 20.1189C23.3586 19.9059 22.4197 19.7994 21.9407 19.7607C21.4329 19.7123 20.6376 19.6542 20.446 19.6252C20.2448 19.5961 20.034 19.5574 19.8616 19.4799C19.6891 19.4025 19.5262 19.2282 19.4687 19.0346C19.3825 18.686 19.4975 18.26 19.6891 17.9792C20.1873 17.2531 21.3658 16.9723 22.2472 16.8658C23.1 16.7593 24.4701 16.7593 25.3132 17.2047C25.4377 17.2725 25.5048 17.3402 25.4856 17.4758C25.4282 17.7372 25.2365 17.9018 24.997 17.9792C24.7479 18.0567 24.2401 18.0857 24.0102 18.1051C23.0041 18.1632 21.7874 18.1342 20.8197 18.3956C20.743 18.4149 20.6185 18.4537 20.5706 18.5021C20.4173 18.6667 20.8484 18.7151 20.9442 18.7344C20.973 18.7441 20.973 18.7441 21.0017 18.7441L23.1479 18.9765ZM17.1597 14.4357C17.1597 14.4357 17.3226 14.1839 17.4567 14C17.7058 13.6611 18.1561 13.177 18.501 12.8866C18.6064 12.7994 18.731 12.6929 18.731 12.6929C18.731 12.6929 18.5394 12.7123 18.434 12.7317C18.1753 12.7801 17.792 13.0415 17.61 13.2061C17.2938 13.4772 16.9489 13.9129 17.1118 14.3098C17.1214 14.3582 17.1597 14.4357 17.1597 14.4357ZM18.8939 14.9004C19.3921 14.8617 19.852 14.7261 20.2831 14.4841C20.7047 14.242 21.3275 13.7773 21.2604 13.2351C21.2412 13.0608 21.1263 12.9253 20.9825 12.8575C20.7909 12.7704 20.6951 12.7898 20.4556 12.8575C20.2831 12.9059 20.2065 12.9447 20.034 13.0318C19.5454 13.3126 18.8651 13.9225 18.4915 14.4066C18.4052 14.5228 18.319 14.6487 18.2519 14.7358C18.2136 14.7939 18.1753 14.8423 18.1753 14.852C18.1945 14.9198 18.7022 14.9198 18.8939 14.9004ZM17.6388 15.8395C17.5908 15.8976 17.5334 16.0235 17.4759 16.1203C17.4471 16.1687 17.3896 16.2365 17.3513 16.2655C17.2268 16.3624 17.1118 16.3624 16.9872 16.2559C16.8148 16.101 16.7094 15.8589 16.7094 15.6265C16.7094 15.52 16.719 15.4135 16.6998 15.3264C16.6711 15.1812 16.5273 15.036 16.4507 14.8907C16.3549 14.7261 16.2878 14.4454 16.2782 14.2614C16.2495 13.6902 16.5465 13.1577 16.9393 12.7413C17.3322 12.3153 17.84 11.9668 18.4052 11.7247C18.9322 11.5021 19.7083 11.3472 20.2831 11.5505C20.4747 11.6182 20.7334 11.7732 20.8676 11.9474C20.8963 11.9862 20.9155 12.0249 20.9442 12.0442C20.973 12.0636 21.04 12.0636 21.0879 12.0733C21.27 12.1023 21.5382 12.2476 21.6436 12.3444C21.864 12.538 21.979 12.7123 22.0365 12.9834C22.1514 13.5159 21.8448 14.0968 21.4999 14.455C20.9059 15.065 20.331 15.491 19.5741 15.7911C19.2388 15.9267 18.7214 16.0429 18.3477 16.0138C18.2328 16.0041 18.1082 15.9751 17.9933 15.9654C17.9358 15.9557 17.725 15.9073 17.6962 15.888C17.6771 15.8492 17.6388 15.8299 17.6388 15.8395ZM18.3094 17.0111C18.3286 17.0111 18.3669 17.0207 18.3957 17.0401C18.6639 17.1466 18.7693 17.3886 18.8364 17.6597C18.9897 18.2891 19.0567 19.6929 19.0759 20.2351C19.0951 20.6418 19.1047 21.0484 19.1238 21.455C19.143 21.7939 19.1621 22.2586 19.0951 22.5781C19.0663 22.6943 18.9897 22.8299 18.8843 22.8976C18.7597 22.9751 18.4723 22.9848 18.319 22.9557C17.9358 22.8783 17.8016 22.6265 17.7537 22.2393C17.6196 21.3195 17.6867 19.4993 17.7633 18.7344C17.792 18.4827 17.8879 17.6694 18.0124 17.3306C18.0507 17.2144 18.1465 16.982 18.3094 17.0111ZM6.51513 18.5505C6.51513 18.5505 5.94027 18.5892 5.53786 18.6376C5.03007 18.6957 4.08154 18.8603 3.53542 19.0539C3.37254 19.112 3.03721 19.2573 3.00846 19.4218C2.97972 19.5961 3.08511 19.7413 3.20967 19.8769C3.27673 19.964 3.67914 20.3416 3.78453 20.4384C4.254 20.8354 5.19295 21.4357 5.88278 21.7261C6.12231 21.823 6.51513 21.9682 6.51513 21.9682C6.51513 21.9682 6.48639 20.8354 6.48639 19.7123C6.50555 19.1411 6.51513 18.5505 6.51513 18.5505ZM17.0926 19.0055C17.1214 19.3153 17.0447 19.8866 17.0351 19.964C17.0064 20.1383 16.8818 20.5449 16.8627 20.5934C16.7573 20.8354 16.6519 21.0387 16.5465 21.242C16.3549 21.5906 15.9046 22.1328 15.6363 22.3651C14.6399 23.2365 13.1069 23.7303 11.7847 23.8852C10.8937 23.9917 9.85893 23.982 8.9104 23.7981C8.58464 23.74 8.09601 23.6238 8.09601 23.6238C8.09601 23.6238 8.09601 23.8174 8.08643 23.9627C8.07685 24.0304 8.02894 24.195 8.00978 24.2434C7.94271 24.3887 7.82774 24.4661 7.66486 24.4952C7.46366 24.5339 7.25288 24.5436 7.07084 24.4661C6.77382 24.3402 6.65885 24.0498 6.61094 23.7206C6.57262 23.4592 6.52471 23.0041 6.52471 23.0041C6.52471 23.0041 6.29477 22.8976 6.11273 22.8008C5.53786 22.5104 4.98216 22.1618 4.50311 21.8036C4.36897 21.7068 3.80369 21.2227 3.66956 21.0968C3.31506 20.7579 2.99888 20.4191 2.75935 19.9834C2.56773 19.6445 2.51983 19.3444 2.66354 18.9862C2.86475 18.4827 3.57375 18.1148 4.0528 17.8921C4.4073 17.7372 5.5187 17.3693 5.97859 17.3015C6.19896 17.2725 6.5343 17.2047 6.55346 17.195C6.56304 17.1853 6.56304 17.1853 6.57262 17.1756C6.5822 17.1563 6.60136 16.6625 6.60136 16.4882C6.60136 16.314 6.7355 15.1425 6.77382 14.8907C6.79298 14.7552 6.89838 14.242 6.99419 14.1065C7.06125 14.0194 7.17623 14.0194 7.27204 14.0871C7.799 14.4163 7.96187 15.5685 8.0002 16.1494C8.01936 16.5076 8.03852 17.0401 8.03852 17.0401C8.03852 17.0401 8.64213 17.0207 9.01579 17.0304C9.37987 17.0401 9.7727 17.0982 10.1559 17.1563C10.635 17.2337 11.5739 17.4371 12.1105 17.7178C12.5512 17.9405 12.9632 18.3278 13.0973 18.7344C13.2219 19.1023 13.2027 19.3638 13.0111 19.6929C12.8003 20.0705 12.3979 20.3513 11.9859 20.3707C11.8614 20.3804 11.4015 20.3126 11.2673 20.2061C11.2099 20.1577 11.2194 20.0802 11.2578 20.0318C11.2769 20.0124 11.4877 19.8963 11.6123 19.8285C11.6793 19.7898 11.7272 19.7607 11.7751 19.7123C11.8805 19.6155 11.9763 19.5187 11.9668 19.3928C11.9476 19.2379 11.7847 19.1411 11.6314 19.0733C10.8937 18.7828 9.43736 18.5311 8.72836 18.4924C8.45051 18.473 8.05768 18.4633 8.05768 18.4633L8.14392 22.4135C8.14392 22.4135 8.46967 22.4716 8.72836 22.52C8.87208 22.5394 9.50443 22.5975 9.6673 22.6072C10.932 22.6362 12.3404 22.5297 13.4997 21.9779C14.0075 21.7358 14.477 21.4357 14.8315 21.029C15.301 20.4869 15.5405 19.751 15.4734 18.9765C15.4064 18.1342 14.8123 17.1369 14.3429 16.527C13.1069 14.9198 10.9799 13.5933 9.1116 12.8188C7.20497 12.0249 5.3175 11.5698 3.29589 11.4924C2.77852 11.473 1.63837 11.5021 1.06351 11.657C0.977277 11.6763 0.900628 11.7054 0.823979 11.7247C0.766493 11.7441 0.670682 11.7828 0.641939 11.8022C0.622777 11.8119 0.613196 11.8312 0.613196 11.8312C0.613196 11.8312 0.65152 11.8506 0.680263 11.87C0.73775 11.899 0.996439 11.9087 1.13057 11.9377C1.24555 11.9571 1.3701 12.0249 1.41801 12.112C1.46591 12.1992 1.46591 12.2572 1.41801 12.3347C1.28387 12.4993 0.795236 12.4702 0.584453 12.4315C0.364088 12.3928 0.0766563 12.325 0.0287509 12.1314C-0.0287355 11.899 0.0766563 11.6667 0.20121 11.4633C0.440737 11.0373 0.776074 10.8243 1.27429 10.6888C1.98329 10.4951 2.87433 10.3596 3.545 10.3306C5.05881 10.2725 6.48639 10.5436 7.95229 10.9889C8.78585 11.2406 9.88767 11.6763 10.6925 12.0636C11.2673 12.3444 12.1775 12.8575 12.6853 13.1964C12.8482 13.3029 13.7872 14 13.9309 14.1259C14.2375 14.3776 14.6303 14.7358 14.9273 15.0263C15.483 15.5878 16.1824 16.4398 16.5178 17.1272C16.5944 17.2918 16.6615 17.4467 16.7669 17.6404C16.8052 17.7081 16.9585 18.0954 16.9872 18.2019C17.016 18.3084 17.0543 18.473 17.0543 18.4827C17.0256 18.5408 17.1022 18.8797 17.0926 19.0055ZM36.0823 18.1342C35.3733 18.2987 33.5146 18.3859 33.5146 18.3859L33.2846 19.1314C33.2846 19.1314 34.214 19.0539 34.8943 19.1217C34.8943 19.1217 35.1146 19.0927 35.1434 19.3734C35.1529 19.6348 35.1242 19.9059 35.1242 19.9059C35.1242 19.9059 35.1146 20.0705 34.8751 20.1189C34.6164 20.1577 32.8727 20.2254 32.8727 20.2254L32.5852 21.1936C32.5852 21.1936 32.4798 21.4163 32.7194 21.3582C32.9397 21.3001 34.7697 20.9516 35.0092 21C35.2679 21.0678 35.5458 21.4066 35.4691 21.7261C35.3733 22.1134 33.5433 23.2946 32.4319 23.2075C32.4319 23.2075 31.8475 23.2462 31.3493 22.4523C30.8894 21.6874 31.5217 20.2545 31.5217 20.2545C31.5217 20.2545 31.2343 19.5864 31.4451 19.3541C31.4451 19.3541 31.5696 19.2379 31.9337 19.2088L32.384 18.2697C32.384 18.2697 31.8762 18.3084 31.5696 17.9212C31.2822 17.5629 31.263 17.3983 31.4834 17.2918C31.7133 17.1756 33.8403 16.7884 35.3062 16.8368C35.3062 16.8368 35.814 16.7884 36.2548 17.6791C36.2356 17.6888 36.4464 18.047 36.0823 18.1342ZM30.5828 21.7358C30.3912 22.1812 29.9025 22.6556 29.2893 22.3651C28.6857 22.065 27.718 20.0705 27.718 20.0705C27.718 20.0705 27.354 19.325 27.2773 19.3444C27.2773 19.3444 27.2007 19.1992 27.1528 20.0124C27.1048 20.8257 27.1623 22.4039 26.8462 22.6556C26.5396 22.9073 26.1755 22.8105 25.9839 22.5104C25.8114 22.2199 25.7348 21.5422 25.8306 20.3416C25.9455 19.1411 26.2138 17.8631 26.5683 17.4661C26.9228 17.0691 27.2007 17.3596 27.3156 17.4661C27.3156 17.4661 27.7851 17.9018 28.5612 19.1701L28.6953 19.4025C28.6953 19.4025 29.4043 20.603 29.4714 20.603C29.4714 20.603 29.5289 20.6611 29.5768 20.6224C29.6534 20.603 29.6247 20.2158 29.6247 20.2158C29.6247 20.2158 29.481 18.9087 28.8294 16.7012C28.8294 16.7012 28.7336 16.4301 28.8007 16.1687C28.8678 15.9073 29.1265 16.0332 29.1265 16.0332C29.1265 16.0332 30.1229 16.5366 30.6115 18.1826C31.0906 19.7994 30.7744 21.2808 30.5828 21.7358ZM41.3423 20.7483C40.892 21.5519 39.5986 23.2268 37.8931 22.8299C37.3278 24.2144 36.8584 25.6086 36.5805 27.6999C36.5805 27.6999 36.523 28.1065 36.1877 27.9613C35.8524 27.8451 35.3062 27.2835 35.2008 26.5187C35.0859 25.5118 35.5266 23.7981 36.4368 21.8423C36.1685 21.4066 35.9865 20.787 36.1494 19.8963C36.1494 19.8963 36.3793 18.2503 38.0177 16.7593C38.0177 16.7593 38.2093 16.5851 38.3243 16.6431C38.4488 16.6916 38.3913 17.2337 38.2955 17.4951C38.1901 17.7566 37.462 19.0346 37.462 19.0346C37.462 19.0346 37.0117 19.8963 37.1362 20.574C37.9985 19.2379 39.9435 16.5463 41.1603 17.3983C41.5627 17.6888 41.7543 18.3278 41.7543 19.0249C41.7543 19.6252 41.601 20.2642 41.3423 20.7483ZM40.9878 18.6376C40.9878 18.6376 40.9207 18.1051 40.4034 18.6957C39.9626 19.1895 39.1674 20.1093 38.5255 21.3679C39.1962 21.2904 39.8477 20.9225 40.0393 20.7386C40.365 20.4481 41.1028 19.6639 40.9878 18.6376ZM50.7413 18.5117H47.6179C47.5508 17.4371 47.4263 16.3914 47.2251 15.3167C47.2059 15.2005 47.1101 15.1231 46.9951 15.1231H46.2766C46.2095 15.1231 46.152 15.1521 46.1137 15.2005C46.0754 15.249 46.0562 15.3167 46.0658 15.3748C46.267 16.4205 46.4011 17.4467 46.4682 18.5117H43.4597C43.316 18.5117 43.201 18.6279 43.201 18.7635V19.4218C43.201 19.5671 43.316 19.6833 43.4597 19.6833H46.5161C46.5161 19.8478 46.5161 19.9931 46.5161 20.1286C46.5161 21.0774 46.4778 21.852 46.382 22.7331C46.3724 22.8008 46.4011 22.8686 46.4394 22.917C46.4873 22.9654 46.5448 22.9945 46.6119 22.9945H47.2826C47.4167 22.9945 47.5221 22.8976 47.5317 22.7621C47.6275 21.8714 47.6658 21.0871 47.6658 20.1189C47.6658 19.9834 47.6658 19.8382 47.6658 19.6736H50.7509C50.8946 19.6736 51.0096 19.5574 51.0096 19.4122V18.7538C51 18.6279 50.8851 18.5117 50.7413 18.5117Z" fill="#101C50"/>
<path d="M8.91036 9.71093C8.86245 9.7787 8.85287 9.85615 8.88162 9.93361C8.91036 10.0111 8.96785 10.0692 9.04449 10.0982L9.60978 10.2918C9.6481 10.3015 9.67684 10.3112 9.71517 10.3112C9.82056 10.3112 9.91637 10.2628 9.97386 10.1757C11.8134 7.44537 14.2949 5.17981 17.1597 3.61134C20.1202 1.99447 23.4736 1.13278 26.8557 1.13278C30.9468 1.13278 34.8942 2.3527 38.2667 4.65698C41.5626 6.90318 44.1208 10.0401 45.6633 13.7289C45.7112 13.8354 45.8166 13.9129 45.9316 13.9129H46.6023C46.6789 13.9129 46.7556 13.8741 46.7939 13.8064C46.8418 13.7386 46.8418 13.6611 46.8131 13.5837C45.2226 9.61411 42.5207 6.23513 39.0141 3.81466C35.4307 1.31674 31.2247 0 26.8461 0C19.622 0 12.9152 3.63071 8.91036 9.71093Z" fill="url(#paint0_linear)"/>
<defs>
<linearGradient id="paint0_linear" x1="47.4549" y1="9.03711" x2="9.64948" y2="3.97885" gradientUnits="userSpaceOnUse">
<stop stop-color="#101C50"/>
<stop offset="0.236" stop-color="#0D267A"/>
<stop offset="0.4973" stop-color="#085AA4"/>
<stop offset="0.6549" stop-color="#058BBF"/>
<stop offset="1" stop-color="#B1FFFF"/>
</linearGradient>
</defs>
</svg>
