<svg width="83" height="51" viewBox="0 0 83 51" fill="none" xmlns="http://www.w3.org/2000/svg">
<path d="M9.44741 0C12.4735 0 14.8447 0.722648 16.561 2.16794C18.2773 3.61324 19.1354 5.60052 19.1354 8.12979C19.1354 10.6591 18.2773 12.6463 16.561 14.0916C14.8447 15.5144 12.4735 16.2257 9.44741 16.2257H3.07907V23.7119H0.572388V0H9.44741ZM9.37966 14.0239C11.7283 14.0239 13.5236 13.5158 14.7657 12.4996C16.0077 11.4607 16.6287 10.0042 16.6287 8.12979C16.6287 6.21026 16.0077 4.74238 14.7657 3.72616C13.5236 2.68735 11.7283 2.16794 9.37966 2.16794H3.07907V14.0239H9.37966Z" fill="#283239"/>
<path d="M30.4536 5.7586C32.7796 5.7586 34.5637 6.34576 35.8057 7.52006C37.0478 8.67178 37.6688 10.3881 37.6688 12.6689V23.7119H35.3654V20.9342C34.8234 21.8601 34.0217 22.5828 32.9603 23.1022C31.9215 23.6216 30.6794 23.8813 29.2341 23.8813C27.2469 23.8813 25.6661 23.407 24.4918 22.4586C23.3175 21.5101 22.7303 20.2567 22.7303 18.6985C22.7303 17.1855 23.2723 15.966 24.3563 15.0401C25.4628 14.1142 27.213 13.6513 29.6068 13.6513H35.2637V12.5673C35.2637 11.0317 34.8347 9.86867 33.9765 9.07827C33.1184 8.26529 31.865 7.8588 30.2165 7.8588C29.0874 7.8588 28.0034 8.05075 26.9646 8.43466C25.9258 8.79598 25.0337 9.3041 24.2885 9.959L23.2045 8.16367C24.1079 7.39585 25.1918 6.8087 26.4565 6.40221C27.7211 5.97314 29.0535 5.7586 30.4536 5.7586ZM29.6068 21.9843C30.9617 21.9843 32.1247 21.6794 33.0958 21.0697C34.0668 20.4374 34.7895 19.5341 35.2637 18.3598V15.4466H29.6745C26.6258 15.4466 25.1015 16.508 25.1015 18.6308C25.1015 19.6696 25.4967 20.4939 26.2871 21.1036C27.0775 21.6907 28.184 21.9843 29.6068 21.9843Z" fill="#283239"/>
<path d="M59.1815 5.8941L50.2726 25.846C49.55 27.5171 48.7144 28.7027 47.7659 29.4028C46.8175 30.1028 45.677 30.4528 44.3446 30.4528C43.4865 30.4528 42.6848 30.3174 41.9396 30.0464C41.1944 29.7754 40.5507 29.3689 40.0088 28.8269L41.1266 27.0316C42.0299 27.9349 43.1139 28.3865 44.3785 28.3865C45.1915 28.3865 45.8803 28.1607 46.4448 27.709C47.032 27.2574 47.574 26.4896 48.0708 25.4056L48.8499 23.678L40.8895 5.8941H43.3962L50.1033 21.0358L56.8103 5.8941H59.1815Z" fill="#283239"/>
<path d="M18.8644 32.7224L10.9379 50.5402H8.46506L0.572388 32.7224H3.07907L9.75228 47.898L16.4932 32.7224H18.8644Z" fill="#283239"/>
<path d="M22.5903 32.7224H24.9954V50.5402H22.5903V32.7224ZM23.8098 28.8269C23.313 28.8269 22.8952 28.6575 22.5564 28.3188C22.2177 27.98 22.0483 27.5736 22.0483 27.0993C22.0483 26.6477 22.2177 26.2525 22.5564 25.9137C22.8952 25.575 23.313 25.4056 23.8098 25.4056C24.3066 25.4056 24.7244 25.575 25.0631 25.9137C25.4019 26.2299 25.5712 26.6138 25.5712 27.0654C25.5712 27.5623 25.4019 27.98 25.0631 28.3188C24.7244 28.6575 24.3066 28.8269 23.8098 28.8269Z" fill="#283239"/>
<path d="M41.4092 49.4562C40.9576 49.8627 40.393 50.1789 39.7155 50.4047C39.0606 50.608 38.3719 50.7096 37.6492 50.7096C35.9781 50.7096 34.6909 50.2579 33.7876 49.3546C32.8843 48.4513 32.4326 47.1754 32.4326 45.5268V34.7549H29.2484V32.7224H32.4326V28.8269H34.8377V32.7224H40.2575V34.7549H34.8377V45.3913C34.8377 46.4527 35.0974 47.2657 35.6168 47.8303C36.1588 48.3723 36.9266 48.6433 37.9202 48.6433C38.417 48.6433 38.8913 48.5642 39.3429 48.4061C39.8172 48.2481 40.2237 48.0222 40.5624 47.7287L41.4092 49.4562Z" fill="#283239"/>
<path d="M42.1681 43.1895C41.9061 43.1895 41.6798 43.0967 41.4893 42.9109C41.3107 42.7252 41.2213 42.4989 41.2213 42.2319C41.2213 41.9649 41.3107 41.7443 41.4893 41.5702C41.6798 41.3845 41.9061 41.2916 42.1681 41.2916C42.4301 41.2916 42.6564 41.3845 42.8469 41.5702C43.0375 41.7443 43.1328 41.9649 43.1328 42.2319C43.1328 42.4989 43.0375 42.7252 42.8469 42.9109C42.6564 43.0967 42.4301 43.1895 42.1681 43.1895Z" fill="#283239"/>
<path d="M49.6399 43.1895C48.711 43.1895 47.8774 42.9922 47.139 42.5975C46.4125 42.2029 45.8409 41.6515 45.4241 40.9434C45.0072 40.2237 44.7988 39.4169 44.7988 38.5231C44.7988 37.6293 45.0072 36.8284 45.4241 36.1203C45.8409 35.4122 46.4125 34.8608 47.139 34.4662C47.8774 34.0715 48.711 33.8741 49.6399 33.8741C50.4497 33.8741 51.1702 34.0309 51.8014 34.3443C52.4445 34.6461 52.9507 35.093 53.3198 35.685L52.3731 36.3118C52.0634 35.8591 51.6704 35.5225 51.1941 35.3019C50.7177 35.0698 50.1996 34.9537 49.6399 34.9537C48.9611 34.9537 48.3478 35.1046 47.7999 35.4064C47.264 35.6966 46.8413 36.1145 46.5316 36.6601C46.2339 37.2056 46.085 37.8267 46.085 38.5231C46.085 39.2312 46.2339 39.858 46.5316 40.4036C46.8413 40.9376 47.264 41.3555 47.7999 41.6573C48.3478 41.9475 48.9611 42.0926 49.6399 42.0926C50.1996 42.0926 50.7177 41.9823 51.1941 41.7618C51.6704 41.5412 52.0634 41.2046 52.3731 40.7519L53.3198 41.3787C52.9507 41.9707 52.4445 42.4234 51.8014 42.7368C51.1583 43.0386 50.4378 43.1895 49.6399 43.1895Z" fill="#283239"/>
<path d="M59.6738 43.1895C58.7687 43.1895 57.9529 42.9922 57.2264 42.5975C56.5 42.1912 55.9283 41.6341 55.5115 40.926C55.0947 40.2179 54.8863 39.4169 54.8863 38.5231C54.8863 37.6293 55.0947 36.8284 55.5115 36.1203C55.9283 35.4122 56.5 34.8608 57.2264 34.4662C57.9529 34.0715 58.7687 33.8741 59.6738 33.8741C60.5789 33.8741 61.3946 34.0715 62.1211 34.4662C62.8476 34.8608 63.4132 35.4122 63.8181 36.1203C64.235 36.8284 64.4434 37.6293 64.4434 38.5231C64.4434 39.4169 64.235 40.2179 63.8181 40.926C63.4132 41.6341 62.8476 42.1912 62.1211 42.5975C61.3946 42.9922 60.5789 43.1895 59.6738 43.1895ZM59.6738 42.0926C60.3407 42.0926 60.9361 41.9475 61.4601 41.6573C61.996 41.3555 62.4129 40.9318 62.7106 40.3862C63.0083 39.8406 63.1572 39.2196 63.1572 38.5231C63.1572 37.8267 63.0083 37.2056 62.7106 36.6601C62.4129 36.1145 61.996 35.6966 61.4601 35.4064C60.9361 35.1046 60.3407 34.9537 59.6738 34.9537C59.0068 34.9537 58.4054 35.1046 57.8695 35.4064C57.3455 35.6966 56.9287 36.1145 56.6191 36.6601C56.3213 37.2056 56.1725 37.8267 56.1725 38.5231C56.1725 39.2196 56.3213 39.8406 56.6191 40.3862C56.9287 40.9318 57.3455 41.3555 57.8695 41.6573C58.4054 41.9475 59.0068 42.0926 59.6738 42.0926Z" fill="#283239"/>
<path d="M78.93 33.8741C80.1091 33.8741 81.032 34.205 81.6989 34.8666C82.3777 35.5283 82.7172 36.5033 82.7172 37.7918V43.1025H81.4488V37.9137C81.4488 36.9619 81.2106 36.2364 80.7343 35.7372C80.2698 35.2381 79.6089 34.9885 78.7514 34.9885C77.7749 34.9885 77.0067 35.2845 76.447 35.8765C75.8873 36.4569 75.6074 37.2637 75.6074 38.2968V43.1025H74.3391V37.9137C74.3391 36.9619 74.1009 36.2364 73.6245 35.7372C73.1601 35.2381 72.4931 34.9885 71.6238 34.9885C70.6591 34.9885 69.891 35.2845 69.3193 35.8765C68.7596 36.4569 68.4798 37.2637 68.4798 38.2968V43.1025H67.2114V33.9438H68.4262V35.6153C68.7596 35.0582 69.2241 34.6287 69.8195 34.3269C70.415 34.025 71.0998 33.8741 71.8739 33.8741C72.6599 33.8741 73.3387 34.0367 73.9103 34.3617C74.4939 34.6867 74.9286 35.1684 75.2144 35.8069C75.5597 35.2033 76.054 34.7331 76.6971 34.3965C77.3521 34.0483 78.0964 33.8741 78.93 33.8741Z" fill="#283239"/>
</svg>
