<svg width="132" height="25" viewBox="0 0 132 25" fill="none" xmlns="http://www.w3.org/2000/svg">
<path d="M9.9265 10.8281L8.13586 10.3471C5.9176 9.73237 5.57016 9.09095 5.57016 8.4228C5.57016 7.32703 6.50557 6.79251 7.70824 6.79251C8.37639 6.79251 8.85746 6.84596 9.28508 6.97959L9.97995 9.81255H12.9198L13.1871 6.20453C11.4499 5.3493 9.84632 4.89496 7.8686 4.89496C3.24499 4.89496 0.732744 7.24685 0.732744 10.4272C0.732744 12.9395 2.06905 14.7301 4.60802 15.3983L6.42539 15.8794C8.5902 16.4673 9.04454 17.1088 9.04454 17.964C9.04454 19.1934 8.08241 19.621 6.47884 19.621C5.65034 19.621 4.90201 19.4607 4.15368 19.1667L3.64588 15.8526H0.732744L0.572388 19.9684C2.30958 21.0375 4.26058 21.5453 6.47884 21.5453C11.1559 21.5453 14.1492 19.6745 14.1492 15.9061C14.1225 13.3671 12.9198 11.6299 9.9265 10.8281Z" fill="#283239"/>
<path d="M24.5989 18.5252C23.6902 18.5252 23.0221 17.857 23.0221 16.4138V7.80805H25.962V5.40271H23.0221V0.859283H19.2003L17.276 5.42944L15.1112 5.6967V7.80805H16.9286V13.3136C16.9286 14.5697 16.9018 15.5052 16.9018 16.7346C16.9018 20.1555 18.7192 21.5185 21.8996 21.5185C24.5188 21.5185 26.0956 20.4495 26.9775 18.6054L26.1758 17.857C25.6145 18.2847 25.1334 18.5252 24.5989 18.5252Z" fill="#283239"/>
<path d="M42.4255 19.0063C42.0781 19.0063 41.891 18.7925 41.891 18.4718V11.1221C41.891 6.73906 40.2607 4.89496 35.8242 4.89496C30.666 4.89496 27.9934 6.81923 27.9934 9.57202C28.3141 10.7212 29.1694 11.3092 30.4255 11.3092C31.8153 11.3092 33.0446 10.3203 33.0446 7.72792V6.65888C33.205 6.65888 33.3654 6.63215 33.5257 6.63215C35.5569 6.63215 35.9578 7.48738 35.9578 10.2134V11.3627C35.2362 11.5497 34.5413 11.7368 34.0068 11.8972C28.8219 13.2869 27.4322 14.944 27.4322 17.4027C27.4322 20.0219 29.0625 21.5453 31.6014 21.5453C33.9266 21.5453 34.9155 20.6099 36.1983 19.2201C36.7328 20.69 37.8821 21.5453 39.8865 21.5453C42.1582 21.5453 43.4144 20.7702 44.1894 18.8192L43.254 18.3114C42.9066 18.8727 42.666 19.0063 42.4255 19.0063ZM34.6215 18.739C33.6861 18.739 32.9645 17.964 32.9645 16.3872C32.9645 14.65 34.1404 13.6344 35.0491 13.2068C35.3164 13.0731 35.6371 12.9662 35.9845 12.8326V18.1243C35.4233 18.552 34.9957 18.739 34.6215 18.739Z" fill="#283239"/>
<path d="M56.5101 4.89496C54.96 4.89496 53.1426 6.23126 52.3141 9.01077L52.0736 5.2424L51.4856 4.89496L44.4032 7.11322V8.4228L46.1404 8.71678C46.1938 9.99963 46.2473 10.5074 46.2473 12.2713V14.3025C46.2473 15.6121 46.2206 17.5097 46.1938 19.0598L44.6705 19.4072V21.0375H46.1404H52.421H54.8531V19.3805L52.3676 18.8192C52.3408 17.3226 52.3408 15.5319 52.3408 14.2758V12.2713C52.5814 10.8014 53.4633 9.35821 54.2384 8.50297L54.3987 8.71678C55.2272 9.94618 56.029 10.4807 57.0981 10.4807C58.3809 10.4807 59.45 9.49184 59.5301 7.75464C59.2629 5.80364 58.0602 4.89496 56.5101 4.89496Z" fill="#283239"/>
<path d="M69.3387 18.5252C68.43 18.5252 67.7618 17.857 67.7618 16.4138V7.80805H70.7017V5.40271H67.7618V0.859283H63.94L62.0157 5.42944L59.8509 5.6967V7.80805H61.6683V13.3136C61.6683 14.5697 61.6416 15.5052 61.6416 16.7346C61.6416 20.1555 63.4589 21.5185 66.6393 21.5185C69.2585 21.5185 70.8353 20.4495 71.6906 18.6054L70.8888 17.857C70.3543 18.2847 69.8732 18.5252 69.3387 18.5252Z" fill="#283239"/>
<path d="M81.7661 10.8281L79.9755 10.347C77.7572 9.73232 77.4098 9.09089 77.4098 8.42274C77.4098 7.32697 78.3452 6.79245 79.5479 6.79245C80.216 6.79245 80.6971 6.84591 81.1247 6.97954L81.8196 9.8125H84.7595L85.0267 6.20448C83.2628 5.37597 81.6592 4.92163 79.7082 4.92163C75.0846 4.92163 72.5724 7.27352 72.5724 10.4539C72.5724 12.9662 73.9087 14.7568 76.4477 15.425L78.265 15.906C80.4031 16.494 80.8575 17.1354 80.8575 17.9907C80.8575 19.2201 79.8953 19.6477 78.2918 19.6477C77.4365 19.6477 76.7149 19.4873 75.9666 19.1933L75.4588 15.8793H72.5457L72.3853 19.9951C74.1225 21.0642 76.0735 21.572 78.2918 21.572C82.9688 21.572 85.9621 19.7011 85.9621 15.9328C85.9621 13.3671 84.7595 11.6299 81.7661 10.8281Z" fill="#283239"/>
<path d="M109.428 5.93725L109.534 1.39383L108.946 1.04639L101.864 2.30251V3.58536L103.387 3.95953L103.281 12.9395C102.612 13.5809 101.864 14.0887 101.223 14.0887C100.394 14.0887 99.8062 13.5809 99.8062 11.8972V5.93725L99.9665 1.39383L99.3786 1.04639L92.1091 2.16888V3.61209L93.7661 3.98625L93.6592 11.7635C93.6058 15.9862 95.53 17.5364 98.3363 17.5364C100.367 17.5364 102.024 16.5475 103.334 14.8638L103.468 17.4027L110.897 17.0553V15.3715L109.428 15.0508V5.93725Z" fill="#283239"/>
<path d="M125.383 0.859283C123.539 0.859283 122.015 1.52743 120.706 2.86374L120.572 1.15327L120.038 0.859283L113.009 3.07754V4.38712L114.746 4.68111C114.799 5.96396 114.853 6.49848 114.853 8.2624V16.7346C114.853 18.2312 114.826 19.9951 114.799 22.1065L113.356 22.4272V24.1109H114.773H120.946H122.603V22.4272L120.893 21.9729C120.866 19.8882 120.839 18.2045 120.839 16.7346V15.9328C121.828 16.9216 123.058 17.4829 124.768 17.4829C128.323 17.4829 131.717 14.3292 131.717 9.0909C131.744 3.61207 128.911 0.859283 125.383 0.859283ZM122.443 14.4094C121.828 14.4094 121.374 14.1956 120.946 13.9016V4.52075C121.401 4.22676 121.908 4.03968 122.443 4.03968C124.153 4.03968 125.249 5.45616 125.249 9.11763C125.249 12.7524 124.153 14.4094 122.443 14.4094Z" fill="#283239"/>
<path d="M110.924 21.0107H92.1358V24.0842H110.924V21.0107Z" fill="#283239"/>
</svg>
