<svg width="100" height="21" viewBox="0 0 100 21" fill="none" xmlns="http://www.w3.org/2000/svg">
<path d="M0 20.6998V18.2982L10.386 4.2846V4.05263H0.287361V1.00975H14.7512V3.41131L4.4062 17.425V17.6569H15.0112V20.6998H0Z" fill="#FFFAF5"/>
<path d="M25.1712 8.15984C24.1586 8.15984 23.3239 8.49188 22.667 9.15595C22.0102 9.82001 21.6453 10.6979 21.5723 11.7895H28.6195C28.583 10.6797 28.2546 9.79727 27.6343 9.1423C27.0139 8.48733 26.1929 8.15984 25.1712 8.15984ZM28.6469 16.5926H31.8626C31.5433 17.9571 30.7907 19.0351 29.6048 19.8265C28.4279 20.6088 26.9638 21 25.2122 21C23.0137 21 21.285 20.3177 20.0261 18.9532C18.7763 17.5796 18.1514 15.692 18.1514 13.2904C18.1514 10.8889 18.7808 8.98765 20.0397 7.58674C21.2987 6.17674 23.0137 5.47174 25.1849 5.47174C27.3196 5.47174 28.989 6.14035 30.1932 7.47758C31.4065 8.80572 32.0131 10.6478 32.0131 13.0039V14.0955H21.5586V14.2729C21.6043 15.5192 21.96 16.5062 22.626 17.2339C23.3011 17.9526 24.1951 18.3119 25.308 18.3119C27.0231 18.3119 28.136 17.7388 28.6469 16.5926Z" fill="#FFFAF5"/>
<path d="M35.8375 20.6998V0H39.2311V20.6998H35.8375Z" fill="#FFFAF5"/>
<path d="M43.9449 20.6998V0H47.3385V20.6998H43.9449Z" fill="#FFFAF5"/>
<path d="M60.2353 20.9454C59.1862 20.9454 58.2511 20.718 57.4301 20.2632C56.609 19.7992 55.9841 19.1579 55.5554 18.3392H55.3227V20.6998H52.0523V0H55.4459V8.1462H55.6785C56.0708 7.33658 56.6729 6.69981 57.4848 6.23587C58.2967 5.76283 59.2135 5.52632 60.2353 5.52632C62.1327 5.52632 63.6288 6.21767 64.7236 7.60039C65.8274 8.97401 66.3793 10.8525 66.3793 13.2359C66.3793 15.6101 65.8274 17.4886 64.7236 18.8713C63.6197 20.2541 62.1236 20.9454 60.2353 20.9454ZM61.891 9.70175C61.2342 8.83756 60.3265 8.40546 59.1679 8.40546C58.0093 8.40546 57.088 8.8421 56.4038 9.7154C55.7287 10.5796 55.3912 11.7531 55.3912 13.2359C55.3912 14.7277 55.7287 15.9058 56.4038 16.77C57.088 17.6342 58.0093 18.0663 59.1679 18.0663C60.3265 18.0663 61.2342 17.6387 61.891 16.7836C62.5569 15.9194 62.8899 14.7368 62.8899 13.2359C62.8899 11.7349 62.5569 10.5569 61.891 9.70175Z" fill="#FFFAF5"/>
<path d="M76.3477 8.15984C75.3351 8.15984 74.5004 8.49188 73.8436 9.15595C73.1868 9.82001 72.8218 10.6979 72.7489 11.7895H79.7961C79.7596 10.6797 79.4312 9.79727 78.8108 9.1423C78.1905 8.48733 77.3695 8.15984 76.3477 8.15984ZM79.8234 16.5926H83.0391C82.7198 17.9571 81.9672 19.0351 80.7813 19.8265C79.6045 20.6088 78.1403 21 76.3888 21C74.1902 21 72.4615 20.3177 71.2026 18.9532C69.9528 17.5796 69.3279 15.692 69.3279 13.2904C69.3279 10.8889 69.9574 8.98765 71.2163 7.58674C72.4752 6.17674 74.1902 5.47174 76.3614 5.47174C78.4961 5.47174 80.1655 6.14035 81.3697 7.47758C82.583 8.80572 83.1897 10.6478 83.1897 13.0039V14.0955H72.7352V14.2729C72.7808 15.5192 73.1366 16.5062 73.8025 17.2339C74.4776 17.9526 75.3716 18.3119 76.4846 18.3119C78.1996 18.3119 79.3126 17.7388 79.8234 16.5926Z" fill="#FFFAF5"/>
<path d="M93.1581 8.15984C92.1455 8.15984 91.3108 8.49188 90.6539 9.15595C89.9971 9.82001 89.6322 10.6979 89.5592 11.7895H96.6064C96.5699 10.6797 96.2415 9.79727 95.6212 9.1423C95.0008 8.48733 94.1798 8.15984 93.1581 8.15984ZM96.6338 16.5926H99.8495C99.5302 17.9571 98.7776 19.0351 97.5916 19.8265C96.4148 20.6088 94.9507 21 93.1991 21C91.0006 21 89.2719 20.3177 88.0129 18.9532C86.7631 17.5796 86.1383 15.692 86.1383 13.2904C86.1383 10.8889 86.7677 8.98765 88.0266 7.58674C89.2855 6.17674 91.0006 5.47174 93.1718 5.47174C95.3064 5.47174 96.9759 6.14035 98.18 7.47758C99.3933 8.80572 100 10.6478 100 13.0039V14.0955H89.5455V14.2729C89.5911 15.5192 89.9469 16.5062 90.6129 17.2339C91.2879 17.9526 92.182 18.3119 93.2949 18.3119C95.0099 18.3119 96.1229 17.7388 96.6338 16.5926Z" fill="#FFFAF5"/>
</svg>
