<svg width="112" height="26" viewBox="0 0 112 26" fill="none" xmlns="http://www.w3.org/2000/svg">
<path d="M14.9521 14.0261C14.9521 14.3009 14.9521 14.5756 14.9521 14.8503C14.9521 15.125 14.67 15.3998 14.3879 15.6745C14.1058 16.2239 13.8237 16.2239 13.5416 16.2239C13.2594 16.2239 12.6952 16.2239 12.4131 16.2239L11.5668 15.9492C11.2846 15.9492 11.0025 15.9492 11.0025 15.9492C11.0025 15.9492 11.0025 15.9492 11.0025 15.6745C11.0025 15.6745 11.0025 15.3998 11.0025 15.125L11.5668 12.6525L12.9773 12.9272C13.5416 12.9272 14.1058 13.202 14.3879 13.4767C14.3879 13.7514 14.67 14.0261 14.9521 14.0261ZM14.9521 9.3558C14.67 9.08107 14.1058 9.08107 13.5416 8.80635L12.131 8.53162L11.5668 11.2789L12.6952 11.5536C13.2594 11.5536 13.8237 11.8283 14.1058 11.5536C14.3879 11.5536 14.67 11.2789 14.9521 11.2789C15.2343 11.0041 15.5164 10.7294 15.5164 10.4547C15.5164 10.18 15.5164 9.90525 15.5164 9.63052C15.2343 9.63052 15.2343 9.3558 14.9521 9.3558ZM25.6725 12.3778C25.6725 19.2459 20.0302 24.7404 12.6952 24.7404C5.64232 25.0151 0 19.5206 0 12.3778C0 5.23492 5.64232 0.0151367 12.6952 0.0151367C20.0302 0.0151367 25.6725 5.50964 25.6725 12.3778ZM18.0554 9.08107C17.7733 8.80634 17.4912 8.2569 16.927 7.98217C16.927 7.98217 16.6448 7.70744 16.3627 7.70744L16.6448 5.78437L14.67 5.50964L14.3879 7.15799L13.2594 6.88327L13.5416 5.23492L11.8489 4.96019L11.2846 6.60854L8.46348 6.05909L8.18136 7.70744H8.74559C9.02771 7.70744 9.30982 7.70744 9.30982 7.98217L9.59194 8.2569C9.59194 8.2569 9.59194 8.53162 9.59194 8.80635L8.18136 14.8503C8.18136 15.125 8.18136 15.3998 7.89924 15.3998C7.61713 15.3998 7.89924 15.3998 7.89924 15.6745C7.89924 15.9492 7.61713 15.6745 7.33501 15.6745H6.77078L6.48866 17.0481L9.30982 17.5976L9.02771 19.2459L11.0025 19.5206L11.2846 17.8723L12.4131 18.147L12.131 19.7954L14.1058 20.0701L14.3879 18.147C14.67 18.147 14.9521 18.147 15.2343 18.147C15.7985 18.147 16.3627 17.8723 16.927 17.3228C17.2091 16.7734 17.4912 16.4987 17.7733 15.6745C17.7733 15.125 17.7733 14.8503 17.7733 14.3008C17.4912 14.0261 17.2091 13.7514 16.927 13.4767C16.6448 13.202 16.3627 12.9272 15.7985 12.6525C16.3627 12.6525 16.6448 12.3778 17.2091 12.3778C17.4912 12.103 17.7733 11.8283 18.0554 11.5536C18.0554 11.2789 18.3375 11.0041 18.3375 10.7294C18.3375 10.18 18.3375 9.63052 18.0554 9.08107ZM41.7531 15.3998C41.7531 19.7954 38.6499 25.0151 32.1612 25.0151C28.7758 25.0151 27.0831 23.6415 27.0831 21.169C27.0831 20.3448 27.3652 19.5206 27.3652 18.6965L30.1864 4.68547H34.4181L32.7254 12.6525C33.8539 11.5536 35.2645 10.7294 37.2393 10.7294C40.6247 10.4547 41.7531 12.9272 41.7531 15.3998ZM37.5214 16.2239C37.5214 14.8503 36.9572 13.7514 35.5466 13.7514C34.136 13.7514 32.4433 15.125 32.1612 17.5976L31.8791 18.6965C31.8791 19.2459 31.597 19.5206 31.597 20.3448C31.597 21.4437 32.1612 21.9932 33.2897 21.9932C35.5466 21.9932 37.5214 18.6965 37.5214 16.2239ZM42.8816 24.7404H47.1133L49.9345 10.7294H45.7028L42.8816 24.7404ZM48.806 4.68547C47.3955 4.68547 46.267 5.50964 46.267 6.88327C46.267 7.98217 47.1133 8.80635 48.2418 8.80635C49.6524 9.08107 50.7809 8.2569 50.7809 6.88327C50.7809 5.50964 49.9345 4.68547 48.806 4.68547ZM58.6801 6.88327L54.4484 7.98217L53.8841 11.0041H51.9093L51.3451 14.0261H53.0378L51.9093 19.5206C51.6272 20.6195 51.6272 21.4437 51.6272 21.9932C51.6272 23.6415 52.7557 25.0151 55.2947 25.0151C56.1411 25.0151 57.2695 25.0151 57.8338 24.7404L58.398 21.4437C58.1159 21.4437 57.5516 21.4437 57.2695 21.4437C56.4232 21.4437 56.1411 20.8943 56.1411 20.3448C56.1411 19.7954 56.1411 19.2459 56.4232 18.6965L57.5516 13.7514H60.6549L61.2191 10.7294H58.1159L58.6801 6.88327ZM61.2191 19.2459C61.2191 22.8173 63.7582 25.0151 67.1436 25.0151C68.8363 25.0151 70.2468 24.7404 71.0932 24.191V21.169C70.2468 21.4437 69.4005 21.7184 68.272 21.7184C66.5793 21.7184 65.4509 20.6195 65.4509 18.9712C65.4509 16.2239 67.1436 13.7514 70.2468 13.7514C71.0932 13.7514 71.6574 14.0261 72.2217 14.0261L73.3501 11.0041C72.7859 10.7294 71.6574 10.4547 70.529 10.4547C65.1688 10.4547 61.2191 14.3009 61.2191 19.2459ZM88.3023 16.2239C88.3023 21.4437 84.6348 25.0151 79.8388 25.0151C76.1713 25.0151 73.9144 22.8173 73.9144 19.2459C73.9144 14.3009 77.2998 10.4547 82.3778 10.4547C86.0453 10.4547 88.3023 12.9272 88.3023 16.2239ZM83.7884 16.2239C83.7884 14.8503 83.2242 13.4767 81.5315 13.4767C78.9924 13.4767 77.864 17.0481 77.864 18.9712C77.864 20.6195 78.7103 21.7184 80.1209 21.7184C82.66 21.9932 83.7884 18.6965 83.7884 16.2239ZM95.0731 4.68547C93.6625 4.68547 92.8161 5.50964 92.534 6.88327C92.534 7.98217 93.3803 8.80635 94.5088 8.80635C95.9194 8.80635 97.0479 7.98217 97.0479 6.60854C97.33 5.50964 96.4836 4.68547 95.0731 4.68547ZM89.4307 24.7404H93.6625L96.4836 10.7294H92.2519L89.4307 24.7404ZM108.332 10.4547C106.358 10.4547 104.665 11.2789 103.254 13.202L103.537 11.0041H99.869C99.5869 12.103 99.5869 13.7514 99.0227 15.3998L97.33 24.7404H101.562L102.69 18.6965C103.254 15.3998 104.665 13.7514 106.076 13.7514C107.204 13.7514 107.486 14.3009 107.486 15.3998C107.486 15.9492 107.486 16.4987 107.204 17.0481L105.793 24.7404H110.025L111.718 16.4987C111.718 15.9492 112 14.8503 112 14.0261C112 11.8283 110.589 10.4547 108.332 10.4547Z" fill="#FFA358"/>
</svg>
