<svg width="128" height="33" viewBox="0 0 128 33" fill="none" xmlns="http://www.w3.org/2000/svg">
<path d="M98.5063 8.36719H91.6524C91.2492 8.36719 90.846 8.7647 90.6444 9.16222L87.8222 26.6529C87.8222 27.0504 88.0238 27.2492 88.427 27.2492H92.0555C92.4587 27.2492 92.6603 27.0504 92.6603 26.6529L93.4666 21.684C93.4666 21.2864 93.8698 20.8889 94.4746 20.8889H96.692C101.329 20.8889 103.949 18.7026 104.554 14.3299C104.957 12.5411 104.554 10.951 103.748 9.95725C102.538 8.96346 100.724 8.36719 98.5063 8.36719ZM99.3127 14.9262C98.9095 17.3113 97.0952 17.3113 95.2809 17.3113H94.0714L94.8778 12.7399C94.8778 12.5411 95.0793 12.3423 95.4825 12.3423H95.8857C97.0952 12.3423 98.3047 12.3423 98.9095 13.1374C99.3127 13.3361 99.3127 13.9324 99.3127 14.9262Z" fill="#139AD6"/>
<path d="M49.1174 8.36719H42.2634C41.8603 8.36719 41.4571 8.7647 41.2555 9.16222L38.4333 26.6529C38.4333 27.0504 38.6349 27.2492 39.0381 27.2492H42.2634C42.6666 27.2492 43.0698 26.8517 43.2714 26.4541L44.0777 21.684C44.0777 21.2864 44.4809 20.8889 45.0857 20.8889H47.3031C51.9396 20.8889 54.5603 18.7026 55.165 14.3299C55.5682 12.5411 55.165 10.951 54.3587 9.95725C53.1492 8.96346 51.5365 8.36719 49.1174 8.36719ZM49.9238 14.9262C49.5206 17.3113 47.7063 17.3113 45.892 17.3113H44.8841L45.6904 12.7399C45.6904 12.5411 45.892 12.3423 46.2952 12.3423H46.6984C47.9079 12.3423 49.1174 12.3423 49.7222 13.1374C49.9238 13.3361 50.1254 13.9324 49.9238 14.9262Z" fill="#263B80"/>
<path d="M69.8809 14.7271H66.6555C66.4539 14.7271 66.0507 14.9259 66.0507 15.1246L65.8491 16.1184L65.6476 15.7209C64.8412 14.7271 63.4301 14.3296 61.8174 14.3296C58.1888 14.3296 54.9634 17.1122 54.3587 20.8886C53.9555 22.8762 54.5603 24.665 55.5682 25.8575C56.5761 27.0501 57.9872 27.4476 59.8015 27.4476C62.8253 27.4476 64.438 25.6588 64.438 25.6588L64.2364 26.6526C64.2364 27.0501 64.438 27.2488 64.8412 27.2488H67.865C68.2682 27.2488 68.6714 26.8513 68.8729 26.4538L70.6872 15.3234C70.4856 15.1246 70.0825 14.7271 69.8809 14.7271ZM65.2444 21.0874C64.8412 22.8762 63.4301 24.2675 61.4142 24.2675C60.4063 24.2675 59.5999 23.87 59.1968 23.4724C58.7936 22.8762 58.592 22.0811 58.592 21.0874C58.7936 19.2985 60.4063 17.9072 62.2206 17.9072C63.2285 17.9072 63.8333 18.3047 64.438 18.7023C65.0428 19.2985 65.2444 20.2923 65.2444 21.0874Z" fill="#263B80"/>
<path d="M119.068 14.7276H115.843C115.641 14.7276 115.238 14.9264 115.238 15.1251L115.036 16.1189L114.835 15.7214C114.029 14.7276 112.617 14.3301 111.005 14.3301C107.376 14.3301 104.151 17.1127 103.546 20.8891C103.143 22.8767 103.748 24.6655 104.755 25.858C105.763 27.0506 107.175 27.4481 108.989 27.4481C112.013 27.4481 113.625 25.6593 113.625 25.6593L113.424 26.6531C113.424 27.0506 113.625 27.2493 114.029 27.2493H117.052C117.455 27.2493 117.859 26.8518 118.06 26.4543L119.875 15.3239C119.673 15.1251 119.471 14.7276 119.068 14.7276ZM114.432 21.0878C114.029 22.8767 112.617 24.268 110.602 24.268C109.594 24.268 108.787 23.8705 108.384 23.4729C107.981 22.8767 107.779 22.0816 107.779 21.0878C107.981 19.299 109.594 17.9077 111.408 17.9077C112.416 17.9077 113.021 18.3052 113.625 18.7027C114.432 19.299 114.633 20.2928 114.432 21.0878Z" fill="#139AD6"/>
<path d="M87.419 14.7275H83.992C83.5889 14.7275 83.3873 14.9263 83.1857 15.1251L78.7508 21.8828L76.7349 15.5226C76.5333 15.1251 76.3317 14.9263 75.7269 14.9263H72.5015C72.0984 14.9263 71.8968 15.3238 71.8968 15.7213L75.5254 26.2555L72.0984 31.0257C71.8968 31.4232 72.0984 32.0195 72.5015 32.0195H75.7269C76.1301 32.0195 76.3317 31.8207 76.5333 31.622L87.6206 15.9201C88.2254 15.3238 87.8222 14.7275 87.419 14.7275Z" fill="#263B80"/>
<path d="M122.898 8.96377L120.076 26.852C120.076 27.2495 120.278 27.4482 120.681 27.4482H123.503C123.906 27.4482 124.309 27.0507 124.511 26.6532L127.333 9.16253C127.333 8.76501 127.132 8.56625 126.729 8.56625H123.503C123.302 8.3675 123.1 8.56625 122.898 8.96377Z" fill="#139AD6"/>
<path d="M23.5158 2.40462C22.1047 0.814562 19.4841 0.0195312 15.8555 0.0195312H5.77614C5.17138 0.0195312 4.56662 0.615805 4.36503 1.21208L0.333282 27.2493C0.333282 27.8456 0.736457 28.2431 1.13963 28.2431H7.38884L9.00154 18.504V18.9015C9.20312 18.3052 9.80789 17.709 10.4126 17.709H13.4365C19.2825 17.709 23.7174 15.3239 25.1285 8.76487C25.1285 8.56612 25.1285 8.36736 25.1285 8.1686C24.9269 8.1686 24.9269 8.1686 25.1285 8.1686C25.3301 5.58475 24.9269 3.99469 23.5158 2.40462Z" fill="#263B80"/>
<path d="M24.927 8.16846C24.927 8.36721 24.927 8.56597 24.927 8.76473C23.5158 15.5225 19.0809 17.7088 13.2349 17.7088H10.2111C9.60632 17.7088 9.00156 18.3051 8.79997 18.9014L6.7841 31.0256C6.7841 31.4231 6.98568 31.8206 7.59044 31.8206H12.8317C13.4365 31.8206 14.0412 31.4231 14.0412 30.8268V30.6281L15.0492 24.4666V24.0691C15.0492 23.4728 15.6539 23.0753 16.2587 23.0753H17.0651C22.1047 23.0753 26.1365 21.0877 27.1444 15.125C27.5476 12.7399 27.346 10.5536 26.1365 9.16225C25.9349 8.76473 25.5317 8.36721 24.927 8.16846Z" fill="#139AD6"/>
<path d="M23.5158 7.57235C23.3142 7.57235 23.1127 7.37359 22.9111 7.37359C22.7095 7.37359 22.5079 7.37359 22.3063 7.17483C21.5 6.97607 20.6936 6.97607 19.6857 6.97607H11.8238C11.6222 6.97607 11.4206 6.97607 11.219 7.17483C10.8158 7.37359 10.6142 7.77111 10.6142 8.16862L9.00155 18.504V18.9015C9.20314 18.3053 9.8079 17.709 10.4127 17.709H13.4365C19.2825 17.709 23.7174 15.3239 25.1285 8.76489C25.1285 8.56614 25.1285 8.36738 25.3301 8.16862C24.9269 7.96986 24.7254 7.77111 24.3222 7.77111C23.7174 7.57235 23.7174 7.57235 23.5158 7.57235Z" fill="#232C65"/>
</svg>
