<svg width="152" height="72" viewBox="0 0 152 72" fill="none" xmlns="http://www.w3.org/2000/svg">
<path d="M18 25.1547C19.2376 24.4402 20.7624 24.4402 22 25.1547L28.3923 28.8453C29.6299 29.5598 30.3923 30.8803 30.3923 32.3094V39.6906C30.3923 41.1197 29.6299 42.4402 28.3923 43.1547L22 46.8453C20.7624 47.5598 19.2376 47.5598 18 46.8453L11.6077 43.1547C10.3701 42.4402 9.6077 41.1197 9.6077 39.6906V32.3094C9.6077 30.8803 10.3701 29.5598 11.6077 28.8453L18 25.1547Z" fill="#7183D0"/>
<path d="M42 25.1547C43.2376 24.4402 44.7624 24.4402 46 25.1547L52.3923 28.8453C53.6299 29.5598 54.3923 30.8803 54.3923 32.3094V39.6906C54.3923 41.1197 53.6299 42.4402 52.3923 43.1547L46 46.8453C44.7624 47.5598 43.2376 47.5598 42 46.8453L35.6077 43.1547C34.3701 42.4402 33.6077 41.1197 33.6077 39.6906V32.3094C33.6077 30.8803 34.3701 29.5598 35.6077 28.8453L42 25.1547Z" fill="#7183D0"/>
<path d="M66 25.1547C67.2376 24.4402 68.7624 24.4402 70 25.1547L76.3923 28.8453C77.6299 29.5598 78.3923 30.8803 78.3923 32.3094V39.6906C78.3923 41.1197 77.6299 42.4402 76.3923 43.1547L70 46.8453C68.7624 47.5598 67.2376 47.5598 66 46.8453L59.6077 43.1547C58.3701 42.4402 57.6077 41.1197 57.6077 39.6906V32.3094C57.6077 30.8803 58.3701 29.5598 59.6077 28.8453L66 25.1547Z" fill="#7183D0"/>
<path d="M90 25.1547C91.2376 24.4402 92.7624 24.4402 94 25.1547L100.392 28.8453C101.63 29.5598 102.392 30.8803 102.392 32.3094V39.6906C102.392 41.1197 101.63 42.4402 100.392 43.1547L94 46.8453C92.7624 47.5598 91.2376 47.5598 90 46.8453L83.6077 43.1547C82.3701 42.4402 81.6077 41.1197 81.6077 39.6906V32.3094C81.6077 30.8803 82.3701 29.5598 83.6077 28.8453L90 25.1547Z" fill="#7183D0"/>
<path d="M114 25.1547C115.238 24.4402 116.762 24.4402 118 25.1547L124.392 28.8453C125.63 29.5598 126.392 30.8803 126.392 32.3094V39.6906C126.392 41.1197 125.63 42.4402 124.392 43.1547L118 46.8453C116.762 47.5598 115.238 47.5598 114 46.8453L107.608 43.1547C106.37 42.4402 105.608 41.1197 105.608 39.6906V32.3094C105.608 30.8803 106.37 29.5598 107.608 28.8453L114 25.1547Z" fill="#7183D0"/>
<path d="M138 25.1547C139.238 24.4402 140.762 24.4402 142 25.1547L148.392 28.8453C149.63 29.5598 150.392 30.8803 150.392 32.3094V39.6906C150.392 41.1197 149.63 42.4402 148.392 43.1547L142 46.8453C140.762 47.5598 139.238 47.5598 138 46.8453L131.608 43.1547C130.37 42.4402 129.608 41.1197 129.608 39.6906V32.3094C129.608 30.8803 130.37 29.5598 131.608 28.8453L138 25.1547Z" fill="#7183D0"/>
<path d="M10 1.1547C11.2376 0.440169 12.7624 0.440169 14 1.1547L20.3923 4.8453C21.6299 5.55983 22.3923 6.88034 22.3923 8.3094V15.6906C22.3923 17.1197 21.6299 18.4402 20.3923 19.1547L14 22.8453C12.7624 23.5598 11.2376 23.5598 10 22.8453L3.6077 19.1547C2.37009 18.4402 1.6077 17.1197 1.6077 15.6906L1.6077 8.3094C1.6077 6.88034 2.37009 5.55983 3.6077 4.8453L10 1.1547Z" fill="#7183D0"/>
<path d="M34 1.1547C35.2376 0.440169 36.7624 0.440169 38 1.1547L44.3923 4.8453C45.6299 5.55983 46.3923 6.88034 46.3923 8.3094V15.6906C46.3923 17.1197 45.6299 18.4402 44.3923 19.1547L38 22.8453C36.7624 23.5598 35.2376 23.5598 34 22.8453L27.6077 19.1547C26.3701 18.4402 25.6077 17.1197 25.6077 15.6906V8.3094C25.6077 6.88034 26.3701 5.55983 27.6077 4.8453L34 1.1547Z" fill="#7183D0"/>
<path d="M58 1.1547C59.2376 0.440169 60.7624 0.440169 62 1.1547L68.3923 4.8453C69.6299 5.55983 70.3923 6.88034 70.3923 8.3094V15.6906C70.3923 17.1197 69.6299 18.4402 68.3923 19.1547L62 22.8453C60.7624 23.5598 59.2376 23.5598 58 22.8453L51.6077 19.1547C50.3701 18.4402 49.6077 17.1197 49.6077 15.6906V8.3094C49.6077 6.88034 50.3701 5.55983 51.6077 4.8453L58 1.1547Z" fill="#7183D0"/>
<path d="M82 1.1547C83.2376 0.440169 84.7624 0.440169 86 1.1547L92.3923 4.8453C93.6299 5.55983 94.3923 6.88034 94.3923 8.3094V15.6906C94.3923 17.1197 93.6299 18.4402 92.3923 19.1547L86 22.8453C84.7624 23.5598 83.2376 23.5598 82 22.8453L75.6077 19.1547C74.3701 18.4402 73.6077 17.1197 73.6077 15.6906V8.3094C73.6077 6.88034 74.3701 5.55983 75.6077 4.8453L82 1.1547Z" fill="#7183D0"/>
<path d="M106 1.1547C107.238 0.440169 108.762 0.440169 110 1.1547L116.392 4.8453C117.63 5.55983 118.392 6.88034 118.392 8.3094V15.6906C118.392 17.1197 117.63 18.4402 116.392 19.1547L110 22.8453C108.762 23.5598 107.238 23.5598 106 22.8453L99.6077 19.1547C98.3701 18.4402 97.6077 17.1197 97.6077 15.6906V8.3094C97.6077 6.88034 98.3701 5.55983 99.6077 4.8453L106 1.1547Z" fill="#7183D0"/>
<path d="M130 1.1547C131.238 0.440169 132.762 0.440169 134 1.1547L140.392 4.8453C141.63 5.55983 142.392 6.88034 142.392 8.3094V15.6906C142.392 17.1197 141.63 18.4402 140.392 19.1547L134 22.8453C132.762 23.5598 131.238 23.5598 130 22.8453L123.608 19.1547C122.37 18.4402 121.608 17.1197 121.608 15.6906V8.3094C121.608 6.88034 122.37 5.55983 123.608 4.8453L130 1.1547Z" fill="#7183D0"/>
<path d="M10 49.1547C11.2376 48.4402 12.7624 48.4402 14 49.1547L20.3923 52.8453C21.6299 53.5598 22.3923 54.8803 22.3923 56.3094V63.6906C22.3923 65.1197 21.6299 66.4402 20.3923 67.1547L14 70.8453C12.7624 71.5598 11.2376 71.5598 10 70.8453L3.6077 67.1547C2.37009 66.4402 1.6077 65.1197 1.6077 63.6906L1.6077 56.3094C1.6077 54.8803 2.37009 53.5598 3.6077 52.8453L10 49.1547Z" fill="#7183D0"/>
<path d="M34 49.1547C35.2376 48.4402 36.7624 48.4402 38 49.1547L44.3923 52.8453C45.6299 53.5598 46.3923 54.8803 46.3923 56.3094V63.6906C46.3923 65.1197 45.6299 66.4402 44.3923 67.1547L38 70.8453C36.7624 71.5598 35.2376 71.5598 34 70.8453L27.6077 67.1547C26.3701 66.4402 25.6077 65.1197 25.6077 63.6906V56.3094C25.6077 54.8803 26.3701 53.5598 27.6077 52.8453L34 49.1547Z" fill="#7183D0"/>
<path d="M58 49.1547C59.2376 48.4402 60.7624 48.4402 62 49.1547L68.3923 52.8453C69.6299 53.5598 70.3923 54.8803 70.3923 56.3094V63.6906C70.3923 65.1197 69.6299 66.4402 68.3923 67.1547L62 70.8453C60.7624 71.5598 59.2376 71.5598 58 70.8453L51.6077 67.1547C50.3701 66.4402 49.6077 65.1197 49.6077 63.6906V56.3094C49.6077 54.8803 50.3701 53.5598 51.6077 52.8453L58 49.1547Z" fill="#7183D0"/>
<path d="M82 49.1547C83.2376 48.4402 84.7624 48.4402 86 49.1547L92.3923 52.8453C93.6299 53.5598 94.3923 54.8803 94.3923 56.3094V63.6906C94.3923 65.1197 93.6299 66.4402 92.3923 67.1547L86 70.8453C84.7624 71.5598 83.2376 71.5598 82 70.8453L75.6077 67.1547C74.3701 66.4402 73.6077 65.1197 73.6077 63.6906V56.3094C73.6077 54.8803 74.3701 53.5598 75.6077 52.8453L82 49.1547Z" fill="#7183D0"/>
<path d="M106 49.1547C107.238 48.4402 108.762 48.4402 110 49.1547L116.392 52.8453C117.63 53.5598 118.392 54.8803 118.392 56.3094V63.6906C118.392 65.1197 117.63 66.4402 116.392 67.1547L110 70.8453C108.762 71.5598 107.238 71.5598 106 70.8453L99.6077 67.1547C98.3701 66.4402 97.6077 65.1197 97.6077 63.6906V56.3094C97.6077 54.8803 98.3701 53.5598 99.6077 52.8453L106 49.1547Z" fill="#7183D0"/>
<path d="M130 49.1547C131.238 48.4402 132.762 48.4402 134 49.1547L140.392 52.8453C141.63 53.5598 142.392 54.8803 142.392 56.3094V63.6906C142.392 65.1197 141.63 66.4402 140.392 67.1547L134 70.8453C132.762 71.5598 131.238 71.5598 130 70.8453L123.608 67.1547C122.37 66.4402 121.608 65.1197 121.608 63.6906V56.3094C121.608 54.8803 122.37 53.5598 123.608 52.8453L130 49.1547Z" fill="#7183D0"/>
</svg>
