<svg width="32" height="20" viewBox="0 0 32 20" fill="none" xmlns="http://www.w3.org/2000/svg">
<path d="M20.7657 2.13879H11.2343V17.861H20.7657V2.13879Z" fill="#FF5F00"/>
<path d="M12.2224 9.99926C12.2224 6.9437 13.6233 4.02704 16.013 2.13815C11.7006 -1.27852 5.49283 -0.528517 2.11429 3.83259C-1.26425 8.1937 -0.522623 14.4437 3.78982 17.8604C7.38811 20.7215 12.4147 20.7215 16.013 17.8604C13.6233 15.9715 12.2224 13.0826 12.2224 9.99926Z" fill="#EB001B"/>
<path d="M31.0661 16.1944V15.8611H31.2034V15.8055H30.8738V15.8611H31.0111V16.1944H31.0661ZM31.6978 16.1944V15.8055H31.588L31.4781 16.0833L31.3682 15.8055H31.2584V16.1944H31.3408V15.8889L31.4506 16.1389H31.533L31.6429 15.8889V16.1944H31.6978Z" fill="#F79E1B"/>
<path d="M32 9.99999C32 15.5278 27.5776 20 22.1115 20C19.8867 20 17.7442 19.25 16.0137 17.8611C20.2987 14.4444 21.0403 8.16666 17.6618 3.83333C17.1673 3.19444 16.618 2.63888 15.9862 2.13888C20.2712 -1.27779 26.5064 -0.527785 29.8849 3.83333C31.2583 5.58333 32 7.74999 32 9.99999Z" fill="#F79E1B"/>
</svg>
