<svg width="162" height="48" viewBox="0 0 162 48" fill="none" xmlns="http://www.w3.org/2000/svg">
<path d="M24.9709 0C11.7311 0 0.984467 10.7479 0.984467 23.9893C0.984467 37.2593 11.7311 47.9785 24.9709 47.9785C38.2393 47.9785 48.9572 37.2306 48.9572 23.9893C48.9859 10.7479 38.2393 0 24.9709 0ZM35.9754 34.6225C35.5455 35.339 34.6285 35.5396 33.912 35.1097C28.2665 31.6704 21.1881 30.8965 12.82 32.7882C12.0176 32.9601 11.2152 32.4729 11.0433 31.6704C10.8713 30.8679 11.3585 30.0654 12.1609 29.8934C21.3027 27.8012 29.1549 28.6897 35.4595 32.5589C36.2046 32.9888 36.4339 33.906 35.9754 34.6225ZM38.9271 28.0878C38.3826 28.9763 37.2363 29.2342 36.3479 28.7183C29.9 24.7344 20.0704 23.588 12.4475 25.9095C11.4445 26.1961 10.4128 25.6516 10.1262 24.6771C9.83966 23.674 10.3842 22.6422 11.3872 22.3556C20.0991 19.7188 30.9316 20.9798 38.3539 25.5369C39.185 26.0528 39.4716 27.1993 38.9271 28.0878ZM39.185 21.2665C31.4475 16.6807 18.6948 16.2508 11.3012 18.4863C10.1262 18.8589 8.8653 18.1711 8.49275 16.996C8.1202 15.8209 8.80798 14.5598 9.98294 14.1872C18.4656 11.6077 32.5651 12.1236 41.449 17.3972C42.5093 18.0278 42.8532 19.4035 42.2227 20.4639C41.6209 21.5531 40.2453 21.897 39.185 21.2665ZM66.2664 22.1549C62.1111 21.1805 61.3946 20.4639 61.3946 19.0022C61.3946 17.6265 62.6842 16.7094 64.6043 16.7094C66.467 16.7094 68.3298 17.4259 70.2785 18.8589C70.3358 18.9163 70.4218 18.9163 70.4791 18.9163C70.5651 18.9163 70.6224 18.8589 70.651 18.8016L72.6857 15.9355C72.7717 15.8209 72.743 15.6489 72.6284 15.5629C70.3071 13.7 67.728 12.8115 64.6616 12.8115C60.191 12.8115 57.0673 15.5056 57.0673 19.3462C57.0673 23.4734 59.7611 24.9351 64.4323 26.0528C68.3871 26.97 69.0749 27.7438 69.0749 29.0909C69.0749 30.6099 67.728 31.5558 65.55 31.5558C63.1427 31.5558 61.1654 30.7532 58.9587 28.833C58.9014 28.7756 58.8441 28.7756 58.7581 28.7756C58.6722 28.7756 58.6148 28.8043 58.5862 28.8616L56.3222 31.5558C56.2363 31.6704 56.2363 31.8424 56.3509 31.9283C58.9301 34.2212 62.0824 35.425 65.4927 35.425C70.3071 35.425 73.4308 32.7882 73.4308 28.7183C73.4022 25.3077 71.3388 23.3874 66.2664 22.1549C66.2951 22.1549 66.2664 22.1549 66.2664 22.1549ZM84.292 18.0564C82.2 18.0564 80.4806 18.8876 79.0764 20.5786V18.687C79.0764 18.5437 78.9617 18.429 78.8184 18.429H75.093C74.9497 18.429 74.835 18.5437 74.835 18.687V39.7815C74.835 39.9248 74.9497 40.0394 75.093 40.0394H78.8184C78.9617 40.0394 79.0764 39.9248 79.0764 39.7815V33.1321C80.4806 34.7085 82.2 35.4823 84.292 35.4823C88.1608 35.4823 92.1155 32.5016 92.1155 26.7694C92.1155 21.0658 88.1895 18.0564 84.292 18.0564ZM87.7883 26.7694C87.7883 29.6641 86.0115 31.6991 83.4323 31.6991C80.8818 31.6991 78.9904 29.5781 78.9904 26.7694C78.9904 23.9606 80.9104 21.8397 83.4323 21.8397C85.9542 21.8397 87.7883 23.9033 87.7883 26.7694ZM102.174 18.0564C97.1879 18.0564 93.2619 21.9257 93.2619 26.8267C93.2619 31.6991 97.1593 35.511 102.117 35.511C107.132 35.511 111.058 31.6704 111.058 26.7694C111.058 21.897 107.161 18.0564 102.174 18.0564ZM102.174 31.7564C99.5092 31.7564 97.5032 29.6068 97.5032 26.798C97.5032 23.9606 99.4519 21.897 102.117 21.897C104.782 21.897 106.817 24.0466 106.817 26.884C106.817 29.6928 104.868 31.7564 102.174 31.7564ZM121.747 18.4004H117.678V14.2445C117.678 14.1012 117.563 13.9866 117.42 13.9866H113.695C113.551 13.9866 113.408 14.1012 113.408 14.2445V18.429H111.631C111.488 18.429 111.373 18.5437 111.373 18.687V21.8683C111.373 22.0116 111.488 22.1263 111.631 22.1263H113.408V30.3807C113.408 33.7053 115.07 35.3963 118.337 35.3963C119.655 35.3963 120.773 35.1097 121.805 34.5365C121.891 34.4792 121.948 34.3932 121.948 34.3072V31.2691C121.948 31.1832 121.891 31.0972 121.805 31.0399C121.719 30.9825 121.633 30.9825 121.547 31.0399C120.83 31.3838 120.143 31.5558 119.369 31.5558C118.194 31.5558 117.649 31.0112 117.649 29.8074V22.1549H121.719C121.862 22.1549 121.977 22.0403 121.977 21.897V18.687C122.005 18.5437 121.891 18.4004 121.747 18.4004ZM135.962 18.429V17.9131C135.962 16.3941 136.535 15.7349 137.824 15.7349C138.598 15.7349 139.229 15.8782 139.916 16.1075C140.002 16.1361 140.088 16.1075 140.174 16.0788C140.232 16.0215 140.289 15.9355 140.289 15.8495V12.7255C140.289 12.6108 140.203 12.4962 140.088 12.4675C139.343 12.2382 138.426 12.0376 136.993 12.0376C133.554 12.0376 131.749 13.9579 131.749 17.6265V18.4004H129.972C129.829 18.4004 129.686 18.515 129.686 18.6583V21.8683C129.686 22.0116 129.8 22.1263 129.972 22.1263H131.749V34.8518C131.749 34.9951 131.864 35.1097 132.036 35.1097H135.732C135.876 35.1097 136.019 34.9951 136.019 34.8518V22.1549H139.487L144.788 34.8804C144.186 36.2275 143.585 36.4854 142.782 36.4854C142.123 36.4854 141.435 36.2848 140.747 35.9122C140.69 35.8836 140.604 35.8836 140.518 35.8836C140.461 35.9122 140.375 35.9695 140.346 36.0269L139.085 38.7783C139.028 38.9216 139.085 39.0649 139.2 39.1223C140.518 39.8388 141.693 40.1254 143.155 40.1254C145.906 40.1254 147.425 38.8356 148.743 35.425L155.191 18.8016C155.22 18.7156 155.22 18.6296 155.162 18.5437C155.105 18.4577 155.019 18.429 154.933 18.429H151.064C150.95 18.429 150.835 18.515 150.806 18.601L146.852 29.8934L142.553 18.601C142.524 18.4863 142.41 18.429 142.295 18.429H135.962ZM127.708 18.4004H123.983C123.839 18.4004 123.696 18.515 123.696 18.6583V34.8518C123.696 34.9951 123.811 35.1097 123.983 35.1097H127.708C127.852 35.1097 127.995 34.9951 127.995 34.8518V18.687C127.995 18.5437 127.88 18.4004 127.708 18.4004ZM125.874 11.0345C124.413 11.0345 123.209 12.2382 123.209 13.7C123.209 15.1617 124.413 16.3654 125.874 16.3654C127.336 16.3654 128.539 15.1617 128.539 13.7C128.539 12.2382 127.364 11.0345 125.874 11.0345ZM158.401 23.6167C156.939 23.6167 155.793 22.4416 155.793 21.0085C155.793 19.5755 156.939 18.3717 158.429 18.3717C159.919 18.3717 161.037 19.5468 161.037 20.9798C161.008 22.4129 159.862 23.6167 158.401 23.6167ZM158.401 18.6296C157.054 18.6296 156.051 19.6901 156.051 21.0085C156.051 22.2983 157.054 23.3587 158.401 23.3587C159.747 23.3587 160.75 22.2983 160.75 20.9798C160.75 19.6901 159.747 18.6296 158.401 18.6296ZM158.974 21.2665L159.719 22.2983H159.088L158.429 21.3524H157.856V22.2983H157.34V19.5468H158.572C159.203 19.5468 159.633 19.8621 159.633 20.4353C159.633 20.8652 159.375 21.1518 158.974 21.2665ZM158.544 20.0054H157.856V20.8652H158.544C158.888 20.8652 159.088 20.6932 159.088 20.4353C159.088 20.1773 158.888 20.0054 158.544 20.0054Z" fill="#00A365"/>
</svg>
