<svg width="84" height="41" viewBox="0 0 84 41" fill="none" xmlns="http://www.w3.org/2000/svg">
<path d="M9.27709 31.7043C8.04284 31.7043 6.87355 31.5744 5.83418 31.3145C4.79482 31.0547 3.85289 30.6649 3.07336 30.1452C2.26136 29.6255 1.64424 28.9759 1.22199 28.2289C0.799749 27.4818 0.572388 26.6049 0.572388 25.6305C0.572388 25.533 0.572388 25.4356 0.572388 25.3057C0.572388 25.1757 0.572388 25.1108 0.572388 25.0133H3.91785C3.91785 25.0783 3.91785 25.1433 3.91785 25.2082C3.91785 25.2732 3.91785 25.3382 3.91785 25.4356C3.91785 26.475 4.40505 27.287 5.37946 27.8391C6.35387 28.3913 7.68556 28.6511 9.37453 28.6511C10.4139 28.6511 11.3558 28.5537 12.1678 28.3263C12.9798 28.1315 13.6294 27.8066 14.1166 27.3844C14.6038 26.9622 14.8312 26.41 14.8312 25.7604C14.8312 24.6885 14.3115 23.909 13.3371 23.4543C12.2977 23.0321 10.7712 22.6423 8.78988 22.3175C7.71804 22.1226 6.71115 21.8952 5.76922 21.6029C4.8273 21.3106 3.98281 20.9208 3.26825 20.4661C2.5212 19.9789 1.93656 19.3943 1.51431 18.7122C1.09207 18.0301 0.89719 17.1856 0.89719 16.2112C0.89719 14.9445 1.28695 13.8726 2.034 12.9957C2.78104 12.1187 3.78793 11.4366 5.05466 10.9819C6.32139 10.5272 7.71804 10.2998 9.27709 10.2998C10.7712 10.2998 12.1678 10.5272 13.4346 11.0144C14.7338 11.5016 15.7407 12.2161 16.5202 13.1256C17.2997 14.035 17.6895 15.1718 17.6895 16.5035C17.6895 16.5685 17.6895 16.601 17.6895 16.6984C17.6895 16.7634 17.6895 16.8283 17.6895 16.8933H14.3765C14.3765 16.8283 14.3765 16.7634 14.3765 16.7309C14.3765 16.6984 14.3765 16.6334 14.3765 16.601C14.3765 15.8539 14.1491 15.2368 13.6619 14.7496C13.1747 14.2299 12.5576 13.8726 11.7781 13.6453C10.9985 13.4179 10.1865 13.288 9.30957 13.288C8.49756 13.288 7.68556 13.3854 6.90603 13.5478C6.12651 13.7102 5.44442 14.0025 4.92474 14.4248C4.40505 14.8146 4.14521 15.3667 4.14521 16.0813C4.14521 16.7959 4.37257 17.348 4.85978 17.7703C5.34698 18.1925 6.02907 18.5498 6.93851 18.8096C7.81548 19.0695 8.88733 19.3293 10.0891 19.5567C11.1609 19.7516 12.2003 19.9789 13.1422 20.2712C14.0842 20.5636 14.9611 20.9533 15.6757 21.408C16.4227 21.8628 16.9749 22.4474 17.3971 23.1295C17.8194 23.8116 18.0143 24.6885 18.0143 25.663C18.0143 26.6698 17.7869 27.5468 17.3322 28.3263C16.9099 29.0409 16.2928 29.658 15.4808 30.1777C14.6688 30.6974 13.7269 31.0547 12.655 31.3145C11.6157 31.5744 10.4789 31.7043 9.27709 31.7043Z" fill="black"/>
<path d="M24.3154 22.285V19.3293H40.3282L39.7435 20.3037C39.7435 20.2388 39.7435 20.1413 39.7435 20.0764C39.7435 20.0114 39.7435 19.9464 39.7435 19.8815C39.7435 18.6797 39.4837 17.6079 38.9965 16.601C38.5093 15.5941 37.7622 14.8146 36.7554 14.2299C35.781 13.6453 34.5467 13.3205 33.0851 13.3205C31.6235 13.3205 30.3243 13.6453 29.2199 14.2624C28.0831 14.847 27.2062 15.724 26.589 16.8608C25.9719 18.0301 25.6471 19.3618 25.6471 20.9533C25.6471 22.5449 25.9394 23.909 26.5566 25.0783C27.1737 26.2151 28.0182 27.1246 29.155 27.7417C30.2593 28.3588 31.591 28.6836 33.1176 28.6836C34.2219 28.6836 35.1638 28.5537 35.9758 28.3263C36.7878 28.099 37.4374 27.8066 37.9896 27.4169C38.5093 27.0271 38.9315 26.6049 39.1914 26.1502C39.4512 25.6954 39.6136 25.2407 39.6786 24.786H42.9916C42.9266 25.6305 42.6668 26.4425 42.212 27.2545C41.7573 28.0665 41.1077 28.8135 40.2957 29.4956C39.4837 30.1777 38.4443 30.6974 37.2426 31.1196C35.9758 31.5094 34.5792 31.7043 33.0201 31.7043C30.9414 31.7043 29.1225 31.2496 27.531 30.3401C25.9394 29.4307 24.7052 28.1964 23.7957 26.5724C22.8863 24.9484 22.4316 23.097 22.4316 21.0183C22.4316 18.9071 22.8863 17.0557 23.7957 15.4317C24.7052 13.8401 25.9719 12.5734 27.5635 11.664C29.155 10.7545 30.9739 10.2998 33.0526 10.2998C35.1313 10.2998 36.9502 10.7545 38.4768 11.664C40.0034 12.5734 41.2052 13.8077 42.0172 15.3992C42.8616 16.9907 43.2514 18.7771 43.2514 20.7909C43.2514 20.9858 43.2514 21.2781 43.2189 21.6029C43.2189 21.9277 43.1864 22.1551 43.154 22.285H24.3154Z" fill="black"/>
<path d="M51.9884 0.848022V31.3145H48.7079V0.848022H51.9884Z" fill="black"/>
<path d="M61.6353 0.848022V31.3145H58.3548V0.848022H61.6353Z" fill="black"/>
<path d="M68.3262 40.0517C67.8066 40.0517 67.3194 40.0192 66.8971 39.9542C66.4749 39.8893 66.215 39.8243 66.0851 39.7918V36.9011C66.2475 36.966 66.5398 37.031 66.9296 37.096C67.3194 37.1609 67.7091 37.1609 68.0989 37.1609C68.9434 37.1609 69.6255 36.9985 70.2101 36.6412C70.7947 36.284 71.2495 35.8292 71.6392 35.2446C72.029 34.66 72.3538 33.9779 72.5812 33.2308L73.1983 31.4119L66.0526 10.5921H69.528L75.277 28.4562H74.8223L80.4414 10.6246H83.8518L76.2514 33.0684C75.8292 34.3351 75.3095 35.472 74.6924 36.5438C74.0752 37.5832 73.2957 38.4277 72.2888 39.0773C71.2819 39.7269 69.9503 40.0517 68.3262 40.0517Z" fill="black"/>
</svg>
