<svg width="42" height="17" viewBox="0 0 42 17" fill="none" xmlns="http://www.w3.org/2000/svg">
<path d="M2.95312 6.66432C2.95312 6.22535 3.33047 6.04977 3.9457 6.04977C4.83164 6.04977 5.95547 6.31315 6.84141 6.77606V4.11033C5.87344 3.73521 4.91367 3.59155 3.9457 3.59155C1.575 3.58357 0 4.78873 0 6.8C0 9.93662 4.42969 9.4338 4.42969 10.7826C4.42969 11.3014 3.96211 11.477 3.30586 11.477C2.33789 11.477 1.09922 11.0939 0.123047 10.5671V13.2648C1.20586 13.7197 2.30508 13.9113 3.30586 13.9113C5.73398 13.9113 7.39922 12.746 7.39922 10.7108C7.39922 7.33474 2.95312 7.93333 2.95312 6.66432ZM10.8363 1.3169L7.98984 1.90751L7.98164 10.9981C7.98164 12.6742 9.27773 13.9192 11.0004 13.9192C11.9602 13.9192 12.6574 13.7516 13.043 13.5441V11.2376C12.6656 11.3812 10.8281 11.908 10.8281 10.2239V6.20141H13.043V3.7831H10.8281L10.8363 1.3169ZM16.6687 4.62113L16.4883 3.7831H13.9699V13.7117H16.8902V6.98357C17.5793 6.10563 18.7441 6.26526 19.1051 6.39296V3.7831C18.7277 3.64742 17.3578 3.39202 16.6687 4.62113ZM19.8105 3.7831H22.7391V13.7117H19.8105V3.7831ZM19.8105 2.92113L22.7391 2.30657V0L19.8105 0.598592V2.92113ZM28.8258 3.58357C27.6855 3.58357 26.9473 4.10235 26.5371 4.46948L26.3895 3.76714H23.8219V17L26.7422 16.4014L26.7504 13.193C27.1688 13.4883 27.7922 13.9113 28.8176 13.9113C30.9094 13.9113 32.8043 12.2751 32.8043 8.67559C32.7961 5.37934 30.8684 3.58357 28.8258 3.58357ZM28.1285 11.4052C27.4395 11.4052 27.0293 11.1657 26.7504 10.8704L26.7422 6.66432C27.0457 6.33709 27.4641 6.10563 28.1285 6.10563C29.1867 6.10563 29.925 7.26291 29.925 8.74742C29.925 10.2718 29.2031 11.4052 28.1285 11.4052ZM42 8.78732C42 5.88216 40.5563 3.59155 37.7918 3.59155C35.0191 3.59155 33.3375 5.88216 33.3375 8.77136C33.3375 12.1873 35.3227 13.9113 38.1691 13.9113C39.5555 13.9113 40.6055 13.608 41.4012 13.177V10.9103C40.6055 11.2934 39.6949 11.5329 38.5465 11.5329C37.4145 11.5329 36.4137 11.1498 36.2824 9.80892H41.9836C41.9754 9.6493 42 9.05869 42 8.78732ZM36.2332 7.70986C36.2332 6.42488 37.0371 5.89014 37.7754 5.89014C38.4891 5.89014 39.2437 6.42488 39.2437 7.70986H36.2332Z" fill="#6772E5"/>
</svg>
