<svg width="99" height="70" viewBox="0 0 99 70" fill="none" xmlns="http://www.w3.org/2000/svg">
<g clip-path="url(#clip0)">
<path d="M49.5006 29.5398L62.4131 21.7858L49.5006 0.0185547L36.5817 21.7858L49.5006 29.5398ZM8.92675 64.0723C8.92675 64.2933 8.74759 64.4753 8.53004 64.4753H0.800467C0.998825 66.4122 2.43212 68.1866 4.4541 68.1866C5.83621 68.1866 6.85999 67.6536 7.63423 66.5292C7.743 66.3732 7.91577 66.2757 8.12692 66.3667C8.2357 66.4187 8.32528 66.5227 8.34448 66.6527C8.36367 66.7827 8.33168 66.8542 8.29329 66.9257C7.51905 68.3036 5.97058 68.9796 4.4541 68.9796C1.84985 68.9796 0.0070343 66.6202 0.0070343 64.0918C0.0070343 61.5635 1.86264 59.2041 4.4541 59.2041C7.04555 59.1911 8.92675 61.544 8.92675 64.0723ZM8.10133 63.6824C7.93496 61.7455 6.46967 59.9711 4.4477 59.9711C2.42572 59.9711 0.992427 61.739 0.794068 63.6824H8.10133ZM18.3008 59.3861C18.5247 59.3861 18.6847 59.5876 18.6847 59.7761C18.6847 60.0036 18.5183 60.1661 18.3008 60.1661H16.2276V68.4271C16.2276 68.6286 16.0612 68.8171 15.8437 68.8171C15.6197 68.8171 15.4598 68.6156 15.4598 68.4271V60.1726H13.4634C13.2394 60.1726 13.0795 60.0036 13.0795 59.7826C13.0795 59.5811 13.2458 59.3926 13.4634 59.3926H15.4598V56.3703C15.4598 56.1753 15.5877 55.9998 15.7733 55.9738C16.0293 55.9283 16.234 56.1103 16.234 56.3573V59.3926H18.3008V59.3861ZM30.9445 63.3769V68.3816C30.9445 68.6091 30.7462 68.7716 30.5606 68.7716C30.3366 68.7716 30.1767 68.6026 30.1767 68.3816V63.3769C30.1767 61.6935 29.2361 60.0101 27.3869 60.0101C25.0066 60.0101 23.9892 62.116 24.1236 64.2803C24.1236 64.3388 24.1491 64.5858 24.1491 64.6118V68.3621C24.1491 68.5571 24.0212 68.7326 23.8356 68.7586C23.5797 68.8041 23.3749 68.6221 23.3749 68.3751V51.944C23.3749 51.7426 23.5413 51.5541 23.7588 51.5541C23.9828 51.5541 24.1427 51.7556 24.1427 51.944V61.2385C24.8082 60.0296 25.9984 59.2106 27.3741 59.2106C29.6456 59.2171 30.9445 61.245 30.9445 63.3769ZM44.7976 64.0723C44.7976 64.2933 44.6184 64.4753 44.4009 64.4753H36.6713C36.8697 66.4122 38.303 68.1866 40.3249 68.1866C41.707 68.1866 42.7308 67.6536 43.5051 66.5292C43.6138 66.3732 43.7866 66.2757 43.9978 66.3667C44.1065 66.4187 44.1961 66.5227 44.2153 66.6527C44.2345 66.7827 44.2025 66.8542 44.1641 66.9257C43.3899 68.3036 41.8414 68.9796 40.3249 68.9796C37.7207 68.9796 35.8779 66.6202 35.8779 64.0918C35.8779 61.5635 37.7335 59.2041 40.3249 59.2041C42.9164 59.1911 44.7912 61.544 44.7976 64.0723ZM43.9658 63.6824C43.7994 61.7455 42.3341 59.9711 40.3121 59.9711C38.2902 59.9711 36.8569 61.739 36.6585 63.6824H43.9658ZM54.2868 59.7501C54.2868 60.0036 54.146 60.1401 53.9285 60.1726C51.6633 60.5041 50.6396 62.3889 50.6396 64.5858V68.3361C50.6396 68.5311 50.5116 68.7066 50.326 68.7326C50.0701 68.7781 49.8653 68.5961 49.8653 68.3491V59.7891C49.8653 59.5941 49.9933 59.4186 50.1789 59.3926C50.4348 59.3471 50.6396 59.5291 50.6396 59.7761V61.518C51.273 60.4261 52.5464 59.3861 53.8709 59.3861C54.0628 59.3861 54.2868 59.5226 54.2868 59.7501ZM66.9753 64.0723C66.9753 64.2933 66.7962 64.4753 66.5786 64.4753H58.849C59.0474 66.4122 60.4807 68.1866 62.5027 68.1866C63.8848 68.1866 64.9086 67.6536 65.6828 66.5292C65.7916 66.3732 65.9643 66.2757 66.1755 66.3667C66.2843 66.4187 66.3738 66.5227 66.393 66.6527C66.4122 66.7827 66.3802 66.8542 66.3419 66.9257C65.5676 68.3036 64.0191 68.9796 62.5027 68.9796C59.8984 68.9796 58.0556 66.6202 58.0556 64.0918C58.0556 61.5635 59.9112 59.2041 62.5027 59.2041C65.0941 59.1911 66.9689 61.544 66.9753 64.0723ZM66.1435 63.6824C65.9771 61.7455 64.5118 59.9711 62.4899 59.9711C60.4679 59.9711 59.0346 61.739 58.8362 63.6824H66.1435ZM79.4527 59.8476V68.4271C79.4527 68.6546 79.2543 68.8171 79.0688 68.8171C78.8448 68.8171 78.6848 68.6481 78.6848 68.4271V66.8022C78.0514 68.0956 76.9124 69.0186 75.4727 69.0186C73.1756 69.0186 71.9023 66.9907 71.9023 64.8588V59.8281C71.9023 59.6266 72.0686 59.4381 72.2862 59.4381C72.5101 59.4381 72.6701 59.6396 72.6701 59.8281V64.8588C72.6701 66.5422 73.6107 68.2256 75.4599 68.2256C78.0642 68.2256 78.6721 65.7492 78.6721 63.0324V59.8281C78.6721 59.6006 78.896 59.3731 79.1712 59.4511C79.3375 59.5096 79.4527 59.6721 79.4527 59.8476ZM99.0006 63.3444V68.3751C99.0006 68.6026 98.8022 68.7651 98.6166 68.7651C98.3927 68.7651 98.2327 68.5961 98.2327 68.3751V63.3444C98.2327 61.661 97.2921 60.0036 95.4429 60.0036C93.1202 60.0036 92.2308 62.5319 92.2308 64.4948V68.3686C92.2308 68.5961 92.0324 68.7586 91.8469 68.7586C91.6229 68.7586 91.463 68.5896 91.463 68.3686V63.3379C91.463 61.6545 90.5224 59.9971 88.6731 59.9971C86.3248 59.9971 85.3586 61.882 85.4418 64.3843C85.4418 64.4428 85.4674 64.5533 85.4418 64.5858V68.3686C85.4418 68.5636 85.3139 68.7391 85.1283 68.7651C84.8723 68.8106 84.6676 68.6286 84.6676 68.3816V59.7891C84.6676 59.5941 84.7956 59.4186 84.9811 59.3926C85.2371 59.3471 85.4418 59.5291 85.4418 59.7761V61.2125C86.1073 60.0036 87.2974 59.2171 88.6731 59.2171C90.2472 59.2171 91.463 60.2246 91.962 61.7195C92.5955 60.2571 93.8432 59.2171 95.4493 59.2171C97.6952 59.2171 99.0006 61.2125 99.0006 63.3444Z" fill="#283239"/>
<path d="M49.4999 42.7598L62.4252 24.2749L49.4999 32.0225L36.581 24.2749L49.4999 42.7598Z" fill="#283239"/>
</g>
<defs>
<clipPath id="clip0">
<rect width="99" height="69" fill="white" transform="translate(-6.10352e-05 0.0185547)"/>
</clipPath>
</defs>
</svg>
