<svg width="67" height="31" viewBox="0 0 67 31" fill="none" xmlns="http://www.w3.org/2000/svg">
<path d="M58.0029 0C52.9918 0 49.0058 4.12875 49.0058 9.0603C49.0058 9.17499 49.0058 9.17499 49.0058 9.17499L43.1975 17.6619C42.2864 17.6619 41.2614 17.7765 40.4642 18.1206C40.1226 18.2353 39.667 18.4647 39.3253 18.694L13.1312 7.79874C12.6757 5.84906 11.1951 4.01406 9.14517 3.09656C5.84243 1.72031 1.97026 3.32593 0.489719 6.76655C-0.876931 10.0925 0.717493 13.9919 4.02023 15.4828C5.72854 16.0562 7.55074 16.0562 9.14517 15.3681C9.48683 15.2534 9.82849 15.024 10.1702 14.7947L36.4782 25.8047C36.9337 27.869 38.3004 29.5893 40.3503 30.5068C43.6531 31.8831 47.5252 30.2775 49.0058 26.9515C49.3474 26.034 49.5752 25.1165 49.4613 24.199L57.7751 18.2353C57.889 18.2353 57.889 18.2353 58.0029 18.2353C63.0139 18.2353 67 14.1065 67 9.17499C67 4.24343 63.0139 0 58.0029 0ZM4.70355 13.9919C2.76747 13.189 1.62859 11.2394 1.62859 9.28968C1.62859 8.60155 1.74248 7.91343 1.97026 7.33999C2.99524 4.70218 5.95632 3.44062 8.57573 4.58749C9.82849 5.04624 10.7396 6.07843 11.1951 7.11062L8.23407 5.84906C6.29798 5.04624 4.13412 5.96374 3.33691 7.91343C2.53969 9.86311 3.45079 12.0422 5.38688 12.845L8.34795 14.1065C7.20908 14.5653 5.84243 14.4506 4.70355 13.9919ZM47.6391 26.2634C46.6141 28.9012 43.5392 30.1628 41.0337 29.0159C39.8948 28.5572 38.9837 27.6397 38.4142 26.4928L41.3753 27.7543C43.3114 28.5572 45.4753 27.6397 46.2725 25.69C47.0697 23.7403 46.1586 21.5612 44.2225 20.7584L41.1475 19.4969C42.2864 19.0381 43.6531 19.0381 44.9058 19.4969C46.1586 20.0703 47.1836 20.9878 47.6391 22.2493C48.0947 23.6256 48.0947 25.0018 47.6391 26.2634ZM58.0029 15.1387C54.7002 15.1387 51.9669 12.3862 51.9669 9.0603C51.9669 5.73437 54.7002 2.98187 58.0029 2.98187C61.3056 2.98187 64.0389 5.73437 64.0389 9.0603C64.0389 12.3862 61.3056 15.1387 58.0029 15.1387ZM58.0029 13.6478C55.4974 13.6478 53.4474 11.5834 53.4474 9.0603C53.4474 6.53718 55.4974 4.47281 58.0029 4.47281C60.5084 4.47281 62.5584 6.53718 62.5584 9.0603C62.5584 11.5834 60.5084 13.6478 58.0029 13.6478Z" fill="#FFFAF5"/>
</svg>
