<svg width="36" height="36" viewBox="0 0 36 36" fill="none" xmlns="http://www.w3.org/2000/svg">
<path d="M20.967 20.3919C20.967 20.7917 20.967 21.1915 20.967 21.5914C20.967 21.9912 20.5714 22.3911 20.1758 22.7909C19.7802 23.5906 19.3846 23.5906 18.989 23.5906C18.5934 23.5906 17.8022 23.5906 17.4066 23.5906L16.2198 23.1907C15.8242 23.1907 15.4286 23.1907 15.4286 23.1907C15.4286 23.1907 15.4286 23.1907 15.4286 22.7909C15.4286 22.7909 15.4286 22.3911 15.4286 21.9912L16.2198 18.3927L18.1978 18.7925C18.989 18.7925 19.7802 19.1923 20.1758 19.5922C20.1758 19.992 20.5714 20.3919 20.967 20.3919ZM20.967 13.5946C20.5714 13.1947 19.7802 13.1947 18.989 12.7949L17.011 12.3951L16.2198 16.3935L17.8022 16.7933C18.5934 16.7933 19.3846 17.1931 19.7802 16.7933C20.1758 16.7933 20.5714 16.3935 20.967 16.3935C21.3626 15.9936 21.7582 15.5938 21.7582 15.1939C21.7582 14.7941 21.7582 14.3943 21.7582 13.9944C21.3626 13.9944 21.3626 13.5946 20.967 13.5946ZM36 17.9928C36 27.9888 28.0879 35.9856 17.8022 35.9856C7.91209 36.3855 0 28.3887 0 17.9928C0 7.59697 7.91209 0 17.8022 0C28.0879 0 36 7.99681 36 17.9928ZM25.3187 13.1947C24.9231 12.7949 24.5275 11.9952 23.7363 11.5954C23.7363 11.5954 23.3407 11.1955 22.9451 11.1955L23.3407 8.39665L20.5714 7.99681L20.1758 10.3958L18.5934 9.99601L18.989 7.59697L16.6154 7.19713L15.8242 9.59617L11.8681 8.79649L11.4725 11.1955H12.2637C12.6593 11.1955 13.0549 11.1955 13.0549 11.5954L13.4506 11.9952C13.4506 11.9952 13.4506 12.3951 13.4506 12.7949L11.4725 21.5914C11.4725 21.9912 11.4725 22.3911 11.0769 22.3911C10.6813 22.3911 11.0769 22.3911 11.0769 22.7909C11.0769 23.1907 10.6813 22.7909 10.2857 22.7909H9.49451L9.0989 24.7901L13.0549 25.5898L12.6593 27.9888L15.4286 28.3887L15.8242 25.9896L17.4066 26.3895L17.011 28.7885L19.7802 29.1883L20.1758 26.3895C20.5714 26.3895 20.967 26.3895 21.3626 26.3895C22.1538 26.3895 22.9451 25.9896 23.7363 25.1899C24.1319 24.3903 24.5275 23.9904 24.9231 22.7909C24.9231 21.9912 24.9231 21.5914 24.9231 20.7917C24.5275 20.3919 24.1319 19.992 23.7363 19.5922C23.3407 19.1923 22.9451 18.7925 22.1538 18.3927C22.9451 18.3927 23.3407 17.9928 24.1319 17.9928C24.5275 17.593 24.9231 17.1931 25.3187 16.7933C25.3187 16.3935 25.7143 15.9936 25.7143 15.5938C25.7143 14.7941 25.7143 13.9944 25.3187 13.1947Z" fill="#FFA358"/>
</svg>
