<svg width="36" height="16" viewBox="0 0 36 16" fill="none" xmlns="http://www.w3.org/2000/svg">
<path d="M7.29004 15.882C7.23387 15.8245 7.19209 15.6948 7.19209 15.6078C7.19209 15.5075 7.13592 14.6302 7.06534 13.6525L6.93858 11.8683L7.07974 8.72019C7.21946 5.51306 7.23387 5.39952 7.47298 5.39952C7.51475 5.39952 7.59974 5.42754 7.65592 5.48652C7.7409 5.55877 7.78267 5.96132 7.9224 8.66415L8.09093 11.7695L7.9224 13.797C7.82445 14.9177 7.7265 15.8673 7.68328 15.9101C7.58533 16.0251 7.41536 16.0103 7.29004 15.8968V15.882ZM8.72184 15.8393C8.65126 15.739 8.59508 15.1344 8.49713 13.682C8.38478 11.9568 8.37037 11.4673 8.42655 10.1741C8.45392 9.35424 8.51153 7.72929 8.55331 6.56441C8.59508 5.39952 8.63829 4.37914 8.65126 4.26412C8.70743 3.88959 9.12948 3.83355 9.21303 4.19187C9.22743 4.26412 9.31098 6.00261 9.39596 8.04485L9.55009 11.7695L9.3974 13.6982C9.34267 14.3647 9.29081 15.0312 9.24328 15.6977C9.24328 15.8113 9.06034 15.9705 8.93502 15.9705C8.86444 15.9705 8.7809 15.913 8.72472 15.8275L8.72184 15.8393ZM10.1839 15.8688C10.0859 15.7685 10.0571 15.6092 10.0298 14.8631C10.0009 14.3736 9.95917 13.6407 9.9318 13.2382C9.84682 12.2178 9.86122 10.8951 9.95917 7.74551C10.0153 6.25033 10.0571 4.7404 10.0571 4.36734C10.0715 3.605 10.1277 3.37497 10.325 3.31747C10.5642 3.25996 10.7457 3.43248 10.7457 3.73476C10.7457 3.87927 10.8162 5.74751 10.8868 7.87527L11.028 11.743L10.8868 13.6835C10.8162 14.7466 10.7457 15.6535 10.7457 15.6962C10.7457 15.8098 10.5627 15.969 10.423 15.969C10.3524 15.969 10.2545 15.9115 10.1839 15.854V15.8688ZM11.6445 15.8688C11.5739 15.7818 11.5321 15.6092 11.5033 15.3365C11.293 12.0585 11.293 11.827 11.391 8.40611C11.5177 3.69052 11.5451 3.24374 11.6574 3.12872C11.7698 3.01371 12.0795 3.01371 12.1774 3.12872C12.2336 3.18623 12.2754 4.02082 12.346 5.88907C12.5145 11.1089 12.5289 11.9421 12.4166 13.6525C12.2898 15.593 12.2768 15.7655 12.1501 15.8806C12.0233 16.0103 11.7986 15.9956 11.6589 15.8525L11.6445 15.8688ZM13.1051 15.854C13.0345 15.7818 12.9783 15.624 12.9783 15.5237C12.9783 15.4235 12.9366 14.5608 12.8804 13.6112C12.7824 12.0158 12.7824 11.569 12.8804 7.70128C12.9927 3.21572 12.9927 3.2865 13.3154 3.21572C13.5963 3.15822 13.7792 3.40299 13.7792 3.8483C13.7792 4.04884 13.8066 5.09871 13.8354 6.16333C13.8628 7.22795 13.906 8.85142 13.9333 9.77301C13.9477 10.6784 13.9751 11.4702 13.9895 11.513C14.0039 11.5557 13.9607 12.4611 13.8916 13.5257C13.844 14.2158 13.8023 14.9059 13.7648 15.5975C13.7648 15.77 13.5401 16 13.3442 16C13.2405 15.9912 13.144 15.9395 13.0777 15.8555L13.1051 15.854ZM14.6075 15.8688C14.4807 15.739 14.4663 15.5812 14.341 13.2809C14.2704 11.9435 14.2848 10.5353 14.4116 5.97606C14.4821 3.53275 14.4821 3.48851 14.861 3.48851C14.9877 3.48851 15.1145 3.53127 15.1836 3.61827C15.3104 3.74803 15.3104 3.8483 15.3666 5.94657C15.381 6.60717 15.4371 8.21884 15.4645 9.51202C15.5207 11.625 15.5207 12.0718 15.4083 13.8118C15.296 15.6815 15.2816 15.7523 15.1419 15.8673C14.9589 16.0103 14.7342 16.0103 14.5801 15.8673L14.6075 15.8688ZM16.0954 15.8688C16.0104 15.7818 15.9687 15.624 15.9413 15.3365C15.8434 14.2291 15.7728 11.4835 15.8001 9.85853C15.8145 8.8529 15.8563 7.31347 15.8707 6.40811C15.9413 2.77041 15.9687 2.19534 16.0954 2.06705C16.2496 1.90928 16.5592 1.90928 16.699 2.06705C16.8531 2.22483 16.8675 2.68489 17.0072 9.70223C17.049 11.8153 16.9093 15.5252 16.7681 15.7832C16.6414 16.028 16.2769 16.0708 16.0796 15.8702L16.0954 15.8688ZM17.6281 15.854C17.5243 15.7729 17.4538 15.655 17.4322 15.5237C17.4177 15.4087 17.3616 14.4738 17.3054 13.4387C17.2348 11.9583 17.2204 11.0662 17.2636 9.25397C17.2924 7.98881 17.3342 5.89054 17.3616 4.59589C17.4033 1.63354 17.4322 1.346 17.6007 1.17348C17.7836 1.00096 18.0501 1.01571 18.2474 1.2015C18.3886 1.346 18.4016 1.40204 18.416 2.13636C18.416 2.56692 18.4304 2.99896 18.4433 3.08449C18.4563 3.17149 18.4721 4.39241 18.4995 5.80059C18.5283 7.20878 18.5557 8.37514 18.5701 8.38989C18.6407 8.5049 18.5845 12.6749 18.4995 13.9681C18.4606 14.4945 18.4275 15.0224 18.4016 15.5503C18.4016 15.708 18.1207 15.9808 17.9377 15.9808C17.8528 15.9838 17.7116 15.9263 17.6281 15.854ZM18.9893 15.826L18.8337 15.6668V0.800422L19.0022 0.670663C19.1981 0.512887 19.9428 0.268113 20.6875 0.110337C21.4884 -0.0474391 22.7949 -0.0341683 23.6231 0.138353C26.9376 0.843184 29.297 3.44575 29.8314 6.9817L29.8732 7.21173L30.422 7.05395C30.8858 6.92419 31.0544 6.89618 31.6579 6.92419C32.515 6.96696 32.5567 6.96696 33.1185 7.18224C35.5917 8.14512 36.7138 11.0647 35.5211 13.48C34.9723 14.6007 34.1859 15.3055 32.9917 15.7523L32.5423 15.9248L25.8573 15.9395L19.1722 15.9543L18.9893 15.826ZM5.81504 15.767C5.78767 15.6948 5.70268 14.7466 5.61914 13.6673C5.47798 11.7695 5.47798 11.6825 5.57737 10.4764C5.63354 9.79955 5.68972 8.96644 5.71853 8.63614C5.7603 8.03305 5.85969 7.74404 6.01382 7.74404C6.20972 7.74404 6.26734 7.97407 6.43587 9.80103L6.6044 11.6707L6.43443 13.654C6.34944 14.7466 6.25149 15.6962 6.22412 15.7818C6.19675 15.882 6.12617 15.9263 6.01382 15.9263C5.90146 15.9263 5.84529 15.8835 5.80351 15.7818L5.81504 15.767ZM4.41061 15.7965C4.39621 15.767 4.29826 14.8469 4.21472 13.7543L4.04618 11.7695L4.21472 9.71403C4.2997 8.57863 4.41061 7.61428 4.43942 7.57152C4.52441 7.47125 4.64973 7.47125 4.73471 7.57152C4.77648 7.61428 4.88884 8.56389 4.98823 9.69928L5.17116 11.7415L4.98823 13.7263C4.89028 14.8189 4.79233 15.739 4.77793 15.7818C4.75056 15.8688 4.45527 15.8968 4.41205 15.8098L4.41061 15.7965ZM3.02059 15.6387C2.99323 15.596 2.89384 14.7186 2.81029 13.6835L2.64176 11.799L2.79445 10.0163C2.87943 9.03869 2.96298 8.10383 2.97738 7.9608C3.01915 7.67326 3.14591 7.55825 3.27267 7.68653C3.31444 7.72929 3.4268 8.57863 3.54059 9.71403L3.73649 11.6693L3.55355 13.5537C3.45561 14.5889 3.34325 15.4942 3.31444 15.5798C3.24386 15.739 3.10414 15.767 3.01915 15.652L3.02059 15.6387ZM1.60176 15.0342C1.58736 14.9767 1.48941 14.1863 1.40587 13.2942L1.23589 11.6707L1.41883 10.0178C1.58736 8.4356 1.61473 8.36482 1.74149 8.33533C1.89561 8.30584 1.88121 8.23506 2.13473 10.2331L2.31766 11.7283L2.13473 13.2957C2.03678 14.1583 1.92442 14.9206 1.89561 15.0062C1.82503 15.1787 1.67091 15.1949 1.62769 15.0357L1.60176 15.0342ZM0.295289 13.8265C0.229029 13.4682 0.172852 13.1099 0.126758 12.7486L0 11.771L0.141163 10.7359C0.211744 10.1608 0.309694 9.65652 0.337062 9.61523C0.476784 9.44271 0.576174 9.7155 0.715897 10.7359L0.870023 11.771L0.715897 12.8061C0.630911 13.3812 0.519997 13.8693 0.476784 13.8988C0.36443 13.971 0.322658 13.9563 0.280885 13.8413L0.295289 13.8265Z" fill="#FFFAF5"/>
</svg>
