<svg width="107" height="35" viewBox="0 0 107 35" fill="none" xmlns="http://www.w3.org/2000/svg">
<path d="M5.90718 15.5145H8.88294L9.52695 12.2056H6.66222L7.30623 8.78574H3.73087L2.55389 12.2056L0.64407 12.3611L6.10352e-05 15.5145H1.71002L0.688484 20.3557C0.577448 20.9331 0.466412 21.5327 0.466412 22.1101C0.466412 24.2864 1.64339 25.8409 4.46371 25.8409C5.95159 25.8409 7.08416 25.53 7.81699 25.2635L7.08416 22.2655C6.77326 22.421 6.44015 22.532 6.12925 22.532C5.28537 22.532 4.84123 22.1545 4.84123 21.355C4.84123 21.0885 4.84123 20.822 4.88564 20.5111L5.90718 15.5145Z" fill="#283239"/>
<path d="M19.3868 13.5381H19.3424C18.8538 12.5165 17.6991 11.8725 16.5665 11.8725C12.9023 11.8725 9.48239 15.8698 9.48239 20.9331C9.48239 24.0865 10.8592 25.8409 13.2132 25.8409C14.5012 25.8409 16.0335 25.0858 17.2105 23.8644H17.2549V25.5077H20.7192L23.3841 12.1834H19.9864L19.3868 13.5381ZM17.477 20.6222C16.7886 22.0656 15.8336 22.3765 15.123 22.3765C14.368 22.3765 13.9016 21.7991 13.9016 20.4001C13.9016 17.4243 15.3451 15.3369 16.8774 15.3369C17.3659 15.3369 17.9877 15.6478 18.3209 16.3584L17.477 20.6222Z" fill="#283239"/>
<path d="M31.823 6.987H27.5593L24.7389 21.1108C24.5835 21.8658 24.5169 22.3988 24.5169 22.9318C24.5169 24.7528 25.3607 25.8631 27.5593 25.8631C28.5142 25.8631 29.2692 25.7077 29.7356 25.5522L29.891 22.3988C29.6689 22.4432 29.5801 22.4432 29.4025 22.4432C29.136 22.4432 28.8695 22.2878 28.8695 21.777C28.8695 21.6437 28.8695 21.5327 28.9139 21.2662L31.823 6.987Z" fill="#283239"/>
<path d="M39.4399 11.8725C35.8646 11.8725 31.9339 15.1814 31.9339 20.067C31.9339 23.6423 34.2212 25.8186 37.4857 25.8186C39.662 25.8186 41.372 25.1746 42.4379 24.4418L40.95 21.7769C40.3726 22.1989 39.4621 22.6208 38.7071 22.6208C37.1526 22.6208 35.9978 21.8658 35.9312 20.1114H43.1263C43.3484 19.7339 43.8814 18.246 43.8814 16.9136C43.8592 14.1821 42.6822 11.8725 39.4399 11.8725ZM40.2838 17.5798H36.2421C36.8195 15.8698 37.8854 15.137 38.907 15.137C40.0173 15.137 40.3948 15.8254 40.3948 16.7359C40.3948 17.0468 40.3504 17.3799 40.2838 17.5798Z" fill="#283239"/>
<path d="M55.4293 11.8725C53.7194 11.8725 52.2315 12.8274 51.0101 13.8934H50.899V12.2056H47.4347L44.8143 25.53H49.0781L50.7214 17.0024C51.6763 15.9809 52.3203 15.5145 53.0531 15.5145C53.7416 15.5145 54.1635 15.892 54.1635 16.6249C54.1635 16.9358 54.0525 17.3133 53.9414 17.8019L52.3869 25.53H56.6507L58.294 17.2689C58.4273 16.6249 58.5161 15.9364 58.5161 15.3591C58.5605 13.0495 57.6056 11.8725 55.4293 11.8725Z" fill="#283239"/>
<path d="M67.9984 8.78574H64.423L63.246 12.2056L61.3362 12.3611L60.6922 15.5145H62.4022L61.4028 20.3557C61.2918 20.9331 61.1808 21.5327 61.1808 22.1101C61.1808 24.2864 62.3577 25.8409 65.1781 25.8409C66.6659 25.8409 67.7985 25.53 68.5313 25.2635L67.7985 22.2877C67.4876 22.4432 67.1545 22.5542 66.8436 22.5542C65.9997 22.5542 65.5556 22.1767 65.5556 21.3772C65.5556 21.1107 65.5556 20.8442 65.6 20.5333L66.6215 15.5145H69.5973L70.2413 12.2056H67.3766L67.9984 8.78574Z" fill="#283239"/>
<path d="M95.58 13.7158C94.0255 13.7158 92.8041 15.8032 92.8041 18.668C92.8041 20.0004 93.2927 20.8443 94.292 20.8443C95.8465 20.8443 97.0679 18.7568 97.0679 15.8921C97.0679 14.5596 96.6015 13.7158 95.58 13.7158Z" fill="#283239"/>
<path d="M89.6061 0.369202C80.2569 0.369202 72.662 7.96406 72.662 17.3133C72.662 18.5569 72.7953 19.7561 73.0617 20.9109C73.4837 19.8893 74.4608 19.0455 75.771 19.0455C77.059 19.0455 77.9029 20.0004 77.9029 21.2884C77.9029 22.7763 76.7259 24.2641 74.9716 24.2641C74.6607 24.2641 74.3498 24.1975 74.1055 24.1087C76.7259 30.0824 82.6775 34.2796 89.6283 34.2796C98.9775 34.2796 106.572 26.6847 106.572 17.3355C106.572 7.98627 98.9775 0.369202 89.6061 0.369202ZM84.9204 23.931H80.6566L83.3215 10.6067H87.5852L84.9204 23.931ZM86.1418 8.91897C85.0314 8.91897 83.8989 8.27496 83.8989 6.94253C83.8989 5.65451 85.0092 4.54415 86.4527 4.54415C87.563 4.54415 88.6956 5.23258 88.6956 6.52059C88.7178 7.89744 87.5853 8.91897 86.1418 8.91897ZM93.8255 24.2641C90.6276 24.2641 88.4957 22.0212 88.4957 18.7346C88.4957 13.5603 92.382 10.318 96.0684 10.318C99.2662 10.318 101.398 12.561 101.398 15.8476C101.398 20.9997 97.4897 24.2641 93.8255 24.2641Z" fill="#283239"/>
</svg>
