<svg width="46" height="15" viewBox="0 0 46 15" fill="none" xmlns="http://www.w3.org/2000/svg">
<path d="M10.0056 5.40135C10.7528 5.99274 11.1218 6.91267 11.1218 8.16116V14.4474H7.57511V8.62551C7.57511 8.37143 7.47609 8.14802 7.28255 7.95965C7.08901 7.77128 6.85946 7.67491 6.59841 7.67491H4.52799C4.26693 7.67491 4.04189 7.77128 3.85735 7.95965C3.67281 8.14802 3.57829 8.37143 3.57829 8.62551V14.4474H6.10352e-05V0H3.57829V4.7092C3.6323 4.69168 3.76283 4.65664 3.96987 4.59969C4.17691 4.54712 4.44697 4.51646 4.78004 4.51646H7.07101C8.28175 4.51646 9.25845 4.80996 10.0056 5.40135ZM21.2714 4.51646H24.8496V10.6099C24.8496 11.7533 24.5301 12.6776 23.8864 13.3873C23.2428 14.0926 22.3741 14.4474 21.2714 14.4474H17.7472C16.5184 14.4474 15.5327 14.1189 14.7991 13.453C14.0609 12.7915 13.6964 11.8453 13.6964 10.6099V4.51646H17.2746V10.3383C17.2746 10.5924 17.3691 10.8115 17.5537 10.9911C17.7382 11.1707 17.9632 11.2627 18.2243 11.2627H20.2947C20.5558 11.2627 20.7853 11.1707 20.9789 10.9911C21.1724 10.8115 21.2714 10.5924 21.2714 10.3383V4.51646ZM27.5637 0H31.1419V14.4474H27.5637V0ZM45.0048 4.51646V10.6099C45.0048 11.7533 44.6852 12.6776 44.0416 13.3873C43.3979 14.0969 42.5293 14.4474 41.4265 14.4474H37.9338C36.6871 14.4474 35.6924 14.1189 34.9587 13.453C34.2206 12.7915 33.856 11.8453 33.856 10.6099V4.51646H37.4342V10.3383C37.4342 10.5924 37.5287 10.8115 37.7133 10.9911C37.8978 11.1707 38.1229 11.2627 38.3839 11.2627H40.4768C40.7379 11.2627 40.9629 11.1707 41.1475 10.9911C41.332 10.8115 41.4265 10.5924 41.4265 10.3383V4.51646H45.0048Z" fill="white"/>
</svg>
