<svg width="42" height="34" viewBox="0 0 42 34" fill="none" xmlns="http://www.w3.org/2000/svg">
<path d="M2.98175 14.6891C2.98175 14.6891 20.9817 7.30194 27.2256 4.7013C29.6189 3.66162 37.7347 0.332337 37.7347 0.332337C37.7347 0.332337 41.4816 -1.12494 41.1676 2.41458C41.064 3.87186 40.2317 8.96946 39.3993 14.4847C38.1494 22.2895 36.7987 30.82 36.7987 30.82C36.7987 30.82 36.5913 33.2133 34.823 33.628C33.0547 34.0456 30.1401 32.1708 29.6217 31.756C29.2041 31.445 21.8169 26.7621 19.1126 24.4725C18.384 23.8476 17.5517 22.6005 19.2163 21.1432C22.9632 17.7103 27.4358 13.445 30.1401 10.7378C31.3901 9.48786 32.6371 6.57618 27.4358 10.1128C20.0486 15.2104 12.7651 19.997 12.7651 19.997C12.7651 19.997 11.1005 21.0367 7.97854 20.1007C4.85662 19.1647 1.21631 17.9147 1.21631 17.9147C1.21631 17.9147 -1.28353 16.3538 2.98175 14.6891Z" fill="white"/>
</svg>
