<svg width="103" height="44" viewBox="0 0 103 44" fill="none" xmlns="http://www.w3.org/2000/svg">
<path d="M7.83856 16.8719C7.83856 15.7616 8.75497 15.3175 10.2491 15.3175C12.4007 15.3175 15.13 15.9837 17.2815 17.1546V10.4119C14.9307 9.46302 12.5999 9.09964 10.2491 9.09964C4.49169 9.07946 0.666687 12.1278 0.666687 17.2151C0.666687 25.1489 11.4245 23.8771 11.4245 27.2888C11.4245 28.6011 10.289 29.0452 8.6952 29.0452C6.34442 29.0452 3.33622 28.0762 0.965515 26.7438V33.5672C3.5952 34.718 6.26473 35.2025 8.6952 35.2025C14.5921 35.2025 18.6362 32.255 18.6362 27.1072C18.6362 18.5677 7.83856 20.0818 7.83856 16.8719ZM26.9835 3.34612L20.0706 4.84002L20.0507 27.8339C20.0507 32.0734 23.1983 35.2226 27.3819 35.2226C29.7128 35.2226 31.4061 34.7987 32.3425 34.2738V28.4396C31.4261 28.8029 26.9636 30.1353 26.9636 25.8757V15.7011H32.3425V9.58415H26.9636L26.9835 3.34612ZM41.1479 11.7039L40.7097 9.58415H34.5936V34.6978H41.6858V17.6795C43.3593 15.4588 46.1882 15.8626 47.0647 16.1856V9.58415C46.1483 9.24096 42.8214 8.59495 41.1479 11.7039ZM48.778 9.58415H55.8901V34.6978H48.778V9.58415ZM48.778 7.40387L55.8901 5.84941V0.0151367L48.778 1.52922V7.40387ZM70.6722 9.07946C67.903 9.07946 66.11 10.3917 65.114 11.3203L64.7554 9.54378H58.5198V43.0151L65.612 41.5011L65.6319 33.3856C66.6479 34.1325 68.162 35.2025 70.6522 35.2025C75.7323 35.2025 80.3343 31.064 80.3343 21.9593C80.3143 13.6217 75.6327 9.07946 70.6722 9.07946ZM68.9788 28.8635C67.3054 28.8635 66.3093 28.2579 65.6319 27.5109L65.612 16.8719C66.3491 16.0442 67.3651 15.4588 68.9788 15.4588C71.5487 15.4588 73.3417 18.386 73.3417 22.141C73.3417 25.9968 71.5886 28.8635 68.9788 28.8635ZM102.667 22.2419C102.667 14.8935 99.1604 9.09964 92.4468 9.09964C85.7132 9.09964 81.6292 14.8935 81.6292 22.2015C81.6292 30.8419 86.4503 35.2025 93.3632 35.2025C96.73 35.2025 99.28 34.4353 101.212 33.3452V27.6119C99.28 28.5809 97.0686 29.1865 94.2796 29.1865C91.5304 29.1865 89.0999 28.2175 88.7811 24.8259H102.627C102.607 24.4222 102.667 22.9283 102.667 22.2419ZM88.6616 19.5165C88.6616 16.2663 90.614 14.9137 92.4069 14.9137C94.1401 14.9137 95.9729 16.2663 95.9729 19.5165H88.6616Z" fill="#6772E5"/>
</svg>
