<svg width="131" height="30" viewBox="0 0 131 30" fill="none" xmlns="http://www.w3.org/2000/svg">
<path d="M0.572388 20.4122V20.3633C0.572388 17.0915 3.0629 15.3823 6.77425 15.3823C8.23926 15.3823 9.67985 15.6753 10.5833 15.9927V15.7242C10.5833 14.0882 9.55777 13.136 7.4335 13.136C5.77316 13.136 4.47907 13.4534 3.0629 14.015L1.91531 10.1083C3.69774 9.37579 5.60225 8.88745 8.33693 8.88745C11.1693 8.88745 13.1226 9.57112 14.3679 10.8164C15.5643 11.9884 16.077 13.6243 16.077 15.8462V24.9537H10.5589V23.3178C9.48451 24.5142 7.97067 25.3199 5.89525 25.3199C2.89198 25.3199 0.572388 23.5864 0.572388 20.4122ZM10.6321 19.2157V18.4832C10.0949 18.2635 9.28918 18.0682 8.48343 18.0682C6.87192 18.0682 5.94408 18.8495 5.94408 20.0215V20.0703C5.94408 21.1447 6.77425 21.8039 7.89742 21.8039C9.50893 21.8283 10.6321 20.8028 10.6321 19.2157Z" fill="#283239"/>
<path d="M18.9093 9.10722H24.4764V11.3291C25.5019 10.0106 26.9669 8.74097 29.2132 8.74097C32.5827 8.74097 34.6093 10.9629 34.6093 14.5766V24.9537H29.0423V16.3834C29.0423 14.6498 28.1389 13.722 26.8204 13.722C25.4774 13.722 24.4764 14.6498 24.4764 16.3834V24.9537H18.9093V9.10722Z" fill="#283239"/>
<path d="M37.3441 27.8837L39.1266 24.1968C40.8357 25.1246 42.5205 25.6862 44.6692 25.6862C47.4527 25.6862 48.82 24.3189 48.82 21.7795V21.1935C47.6969 22.4876 46.2318 23.5619 43.9367 23.5619C40.0544 23.5619 36.9046 20.754 36.9046 16.2125V16.1392C36.9046 11.5733 40.1032 8.76538 43.7658 8.76538C46.1342 8.76538 47.5503 9.74205 48.7468 10.9873V9.10722H54.2894V21.1447C54.2894 24.0503 53.6545 26.0769 52.2384 27.4686C50.7978 28.9092 48.5759 29.6906 45.2796 29.6906C42.2031 29.715 39.6393 29.0557 37.3441 27.8837ZM48.82 16.2125V16.1392C48.82 14.3812 47.4771 13.0872 45.597 13.0872C43.6925 13.0872 42.3496 14.4057 42.3496 16.1637V16.2125C42.3496 17.9705 43.6925 19.2646 45.597 19.2646C47.4771 19.289 48.82 17.9705 48.82 16.2125Z" fill="#283239"/>
<path d="M82.393 0.414825C77.2899 0.414825 72.8949 3.97968 71.845 8.9607L71.1857 12.0616C69.916 10.0839 67.7673 8.74095 64.6664 8.74095C59.9784 8.74095 56.6821 12.4035 56.6821 17.0182V17.0671C56.6821 21.9993 60.1981 25.2955 65.1792 25.2955C66.4488 25.2955 67.5476 25.0269 68.5243 24.6607L67.4255 29.715H116.625C121.338 29.715 125.44 26.4187 126.416 21.7795L130.982 0.414825H82.393ZM64.6664 12.8674C66.1803 12.8674 67.2058 13.9906 67.4255 15.7241H61.9317C62.2247 14.015 63.2014 12.8674 64.6664 12.8674ZM69.5009 20.0215L68.9638 19.582C67.8162 20.7052 66.7663 21.1935 65.4478 21.1935C63.7142 21.1935 62.4689 20.3145 62.0294 18.5809H69.8184L69.5009 20.0215ZM89.4983 3.58901H95.3095L94.4305 7.69103H88.6193L89.4983 3.58901ZM76.2888 24.9537L80.8303 3.56459H86.3974L81.8558 24.9537H76.2888ZM85.0788 24.9537L88.4484 9.1072H94.0154L90.6459 24.9537H85.0788ZM103.025 14.9184C105.98 15.7974 108.25 16.8717 107.591 19.9483V19.9971C106.859 23.4887 103.855 25.2955 99.9975 25.2955C97.3361 25.2955 94.87 24.5386 92.9899 22.9515L95.7734 19.582C97.3361 20.7784 99.1918 21.3888 100.828 21.3888C101.804 21.3888 102.293 21.0958 102.415 20.5343L102.439 20.4854C102.561 19.875 101.756 19.6064 100.168 19.1425C97.214 18.3123 94.9432 17.2624 95.6269 14.0638L95.6513 14.015C96.3594 10.6455 99.4603 8.76537 103.123 8.76537C105.442 8.76537 107.689 9.44904 109.251 10.5966L106.59 14.1126C105.149 13.2092 103.465 12.6476 102.219 12.6476C101.365 12.6476 100.852 12.9651 100.779 13.4046L100.754 13.4534C100.632 14.1371 101.463 14.4301 103.025 14.9184ZM121.167 13.5999H117.48L116.332 18.9472C116.088 20.0703 116.503 20.5343 117.529 20.5343C118.261 20.5343 118.994 20.3389 119.751 19.9971L118.823 24.3677C117.7 24.9293 116.308 25.2711 114.77 25.2711C111.425 25.2711 109.74 23.8061 110.546 20.0215L111.913 13.5999H110.033L110.985 9.13162H112.865L113.72 5.12726H119.287L118.432 9.13162H122.119L121.167 13.5999Z" fill="#283239"/>
</svg>
