<svg width="27" height="32" viewBox="0 0 27 32" fill="none" xmlns="http://www.w3.org/2000/svg">
<path d="M22.8965 2.98492C21.5376 1.45374 19.014 0.688148 15.5198 0.688148H5.81369C5.23132 0.688148 4.64896 1.26234 4.45483 1.83653L0.572388 26.9096C0.572388 27.4838 0.960632 27.8666 1.34888 27.8666H7.36667L8.91965 18.4881V18.8709C9.11377 18.2967 9.69614 17.7225 10.2785 17.7225H13.1903C18.8199 17.7225 23.0906 15.4258 24.4494 9.10964C24.4494 8.91824 24.4494 8.72685 24.4494 8.53545C24.2553 8.53545 24.2553 8.53545 24.4494 8.53545C24.6436 6.04728 24.2553 4.5161 22.8965 2.98492Z" fill="#263B80"/>
<path d="M24.2553 8.53554C24.2553 8.72694 24.2553 8.91833 24.2553 9.10973C22.8964 15.6172 18.6258 17.7226 12.9962 17.7226H10.0844C9.502 17.7226 8.91963 18.2968 8.72551 18.871L6.78429 30.5463C6.78429 30.9291 6.97841 31.3118 7.56078 31.3118H12.608C13.1903 31.3118 13.7727 30.9291 13.7727 30.3549V30.1635L14.7433 24.2301V23.8473C14.7433 23.2731 15.3257 22.8904 15.908 22.8904H16.6845C21.5376 22.8904 25.42 20.9764 26.3906 15.2345C26.7789 12.9377 26.5848 10.8323 25.42 9.49253C25.2259 9.10973 24.8377 8.72694 24.2553 8.53554Z" fill="#139AD6"/>
<path d="M22.8964 7.96131C22.7023 7.96131 22.5082 7.76991 22.314 7.76991C22.1199 7.76991 21.9258 7.76991 21.7317 7.57851C20.9552 7.38712 20.1787 7.38712 19.2081 7.38712H11.6373C11.4432 7.38712 11.2491 7.38712 11.0549 7.57851C10.6667 7.76991 10.4726 8.15271 10.4726 8.5355L8.9196 18.4882V18.871C9.11372 18.2968 9.69609 17.7226 10.2785 17.7226H13.1903C18.8198 17.7226 23.0905 15.4258 24.4494 9.10969C24.4494 8.9183 24.4494 8.7269 24.6435 8.5355C24.2553 8.3441 24.0611 8.15271 23.6729 8.15271C23.0905 7.96131 23.0905 7.96131 22.8964 7.96131Z" fill="#232C65"/>
</svg>
