<svg width="51" height="21" viewBox="0 0 51 21" fill="none" xmlns="http://www.w3.org/2000/svg">
<path d="M3.58591 8.22995C3.58591 7.6877 4.04411 7.4708 4.79118 7.4708C5.86696 7.4708 7.23161 7.79615 8.30739 8.36798V5.07502C7.132 4.61164 5.96657 4.43418 4.79118 4.43418C1.91247 4.42432 -3.05176e-05 5.91305 -3.05176e-05 8.39756C-3.05176e-05 12.2722 5.37888 11.6511 5.37888 13.3173C5.37888 13.9581 4.8111 14.175 4.01423 14.175C2.83884 14.175 1.33474 13.7018 0.149384 13.0511V16.3835C1.46423 16.9454 2.79899 17.1821 4.01423 17.1821C6.96266 17.1821 8.98473 15.7426 8.98473 13.2285C8.98473 9.05812 3.58591 9.79756 3.58591 8.22995ZM13.1584 1.62432L9.70192 2.3539L9.69196 13.5835C9.69196 15.6539 11.2658 17.1919 13.3576 17.1919C14.523 17.1919 15.3697 16.9849 15.8379 16.7285V13.8792C15.3797 14.0567 13.1484 14.7074 13.1484 12.6271V7.65812H15.8379V4.6708H13.1484L13.1584 1.62432ZM20.2406 5.70601L20.0215 4.6708H16.9634V16.9356H20.5095V8.62432C21.3463 7.53981 22.7607 7.737 23.199 7.89474V4.6708C22.7408 4.50319 21.0773 4.1877 20.2406 5.70601ZM24.0556 4.6708H27.6117V16.9356H24.0556V4.6708ZM24.0556 3.60601L27.6117 2.84685V-0.00244141L24.0556 0.736995V3.60601ZM35.0027 4.42432C33.6181 4.42432 32.7216 5.06516 32.2236 5.51869L32.0443 4.65108H28.9265V20.9976L32.4726 20.2581L32.4826 16.2947C32.9906 16.6595 33.7476 17.1821 34.9927 17.1821C37.5328 17.1821 39.8338 15.1609 39.8338 10.7145C39.8238 6.64263 37.483 4.42432 35.0027 4.42432ZM34.156 14.0863C33.3193 14.0863 32.8213 13.7905 32.4826 13.4257L32.4726 8.22995C32.8412 7.82573 33.3492 7.53981 34.156 7.53981C35.441 7.53981 36.3375 8.96939 36.3375 10.8032C36.3375 12.6863 35.4609 14.0863 34.156 14.0863ZM51 10.8525C51 7.26376 49.2468 4.43418 45.89 4.43418C42.5232 4.43418 40.4812 7.26376 40.4812 10.8328C40.4812 15.0525 42.8918 17.1821 46.3482 17.1821C48.0316 17.1821 49.3066 16.8074 50.2728 16.275V13.475C49.3066 13.9483 48.2009 14.244 46.8064 14.244C45.4318 14.244 44.2166 13.7708 44.0572 12.1145H50.98C50.9701 11.9173 51 11.1877 51 10.8525ZM43.9974 9.5215C43.9974 7.93418 44.9736 7.27362 45.8701 7.27362C46.7367 7.27362 47.6531 7.93418 47.6531 9.5215H43.9974Z" fill="white"/>
</svg>
