<svg width="60" height="42" viewBox="0 0 60 42" fill="none" xmlns="http://www.w3.org/2000/svg">
<path d="M18.6118 7.424L17.0158 2.6H18.4198L19.3198 5.684H19.3438L20.2438 2.6H21.5278L19.9318 7.424V11H18.6118V7.424ZM26.2195 11.12C25.5715 11.12 25.0755 10.936 24.7315 10.568C24.3875 10.2 24.2155 9.68 24.2155 9.008V4.592C24.2155 3.92 24.3875 3.4 24.7315 3.032C25.0755 2.664 25.5715 2.48 26.2195 2.48C26.8675 2.48 27.3635 2.664 27.7075 3.032C28.0515 3.4 28.2235 3.92 28.2235 4.592V9.008C28.2235 9.68 28.0515 10.2 27.7075 10.568C27.3635 10.936 26.8675 11.12 26.2195 11.12ZM26.2195 9.92C26.6755 9.92 26.9035 9.644 26.9035 9.092V4.508C26.9035 3.956 26.6755 3.68 26.2195 3.68C25.7635 3.68 25.5355 3.956 25.5355 4.508V9.092C25.5355 9.644 25.7635 9.92 26.2195 9.92ZM33.4362 11.12C32.7962 11.12 32.3082 10.94 31.9722 10.58C31.6362 10.212 31.4682 9.688 31.4682 9.008V2.6H32.7882V9.104C32.7882 9.392 32.8442 9.6 32.9562 9.728C33.0762 9.856 33.2442 9.92 33.4602 9.92C33.6762 9.92 33.8402 9.856 33.9522 9.728C34.0722 9.6 34.1322 9.392 34.1322 9.104V2.6H35.4042V9.008C35.4042 9.688 35.2362 10.212 34.9002 10.58C34.5642 10.94 34.0762 11.12 33.4362 11.12ZM38.7443 2.6H40.7003C41.3803 2.6 41.8763 2.76 42.1883 3.08C42.5003 3.392 42.6563 3.876 42.6563 4.532V5.048C42.6563 5.92 42.3683 6.472 41.7923 6.704V6.728C42.1123 6.824 42.3363 7.02 42.4643 7.316C42.6003 7.612 42.6683 8.008 42.6683 8.504V9.98C42.6683 10.22 42.6763 10.416 42.6923 10.568C42.7083 10.712 42.7483 10.856 42.8123 11H41.4683C41.4203 10.864 41.3883 10.736 41.3723 10.616C41.3563 10.496 41.3483 10.28 41.3483 9.968V8.432C41.3483 8.048 41.2843 7.78 41.1563 7.628C41.0363 7.476 40.8243 7.4 40.5203 7.4H40.0643V11H38.7443V2.6ZM40.5443 6.2C40.8083 6.2 41.0043 6.132 41.1323 5.996C41.2683 5.86 41.3363 5.632 41.3363 5.312V4.664C41.3363 4.36 41.2803 4.14 41.1683 4.004C41.0643 3.868 40.8963 3.8 40.6643 3.8H40.0643V6.2H40.5443ZM17.1772 30.6H19.1692C19.8492 30.6 20.3452 30.76 20.6572 31.08C20.9692 31.392 21.1252 31.876 21.1252 32.532V32.868C21.1252 33.3 21.0532 33.652 20.9092 33.924C20.7732 34.196 20.5612 34.392 20.2732 34.512V34.536C20.9292 34.76 21.2572 35.344 21.2572 36.288V37.008C21.2572 37.656 21.0852 38.152 20.7412 38.496C20.4052 38.832 19.9092 39 19.2532 39H17.1772V30.6ZM19.0132 34.02C19.2772 34.02 19.4732 33.952 19.6012 33.816C19.7372 33.68 19.8052 33.452 19.8052 33.132V32.664C19.8052 32.36 19.7492 32.14 19.6372 32.004C19.5332 31.868 19.3652 31.8 19.1332 31.8H18.4972V34.02H19.0132ZM19.2532 37.8C19.4852 37.8 19.6572 37.74 19.7692 37.62C19.8812 37.492 19.9372 37.276 19.9372 36.972V36.24C19.9372 35.856 19.8692 35.592 19.7332 35.448C19.6052 35.296 19.3892 35.22 19.0852 35.22H18.4972V37.8H19.2532ZM26.3367 39.12C25.6887 39.12 25.1927 38.936 24.8487 38.568C24.5047 38.2 24.3327 37.68 24.3327 37.008V32.592C24.3327 31.92 24.5047 31.4 24.8487 31.032C25.1927 30.664 25.6887 30.48 26.3367 30.48C26.9847 30.48 27.4807 30.664 27.8247 31.032C28.1687 31.4 28.3407 31.92 28.3407 32.592V37.008C28.3407 37.68 28.1687 38.2 27.8247 38.568C27.4807 38.936 26.9847 39.12 26.3367 39.12ZM26.3367 37.92C26.7927 37.92 27.0207 37.644 27.0207 37.092V32.508C27.0207 31.956 26.7927 31.68 26.3367 31.68C25.8807 31.68 25.6527 31.956 25.6527 32.508V37.092C25.6527 37.644 25.8807 37.92 26.3367 37.92ZM33.5414 39.12C32.8934 39.12 32.3974 38.936 32.0534 38.568C31.7094 38.2 31.5374 37.68 31.5374 37.008V32.592C31.5374 31.92 31.7094 31.4 32.0534 31.032C32.3974 30.664 32.8934 30.48 33.5414 30.48C34.1894 30.48 34.6854 30.664 35.0294 31.032C35.3734 31.4 35.5454 31.92 35.5454 32.592V37.008C35.5454 37.68 35.3734 38.2 35.0294 38.568C34.6854 38.936 34.1894 39.12 33.5414 39.12ZM33.5414 37.92C33.9974 37.92 34.2254 37.644 34.2254 37.092V32.508C34.2254 31.956 33.9974 31.68 33.5414 31.68C33.0854 31.68 32.8574 31.956 32.8574 32.508V37.092C32.8574 37.644 33.0854 37.92 33.5414 37.92ZM38.8381 30.6H40.1581V34.14L41.8381 30.6H43.1581L41.5861 33.684L43.1821 39H41.8021L40.6861 35.256L40.1581 36.324V39H38.8381V30.6Z" fill="white"/>
<path d="M7.12319 14.8H8.88319V19.36H10.7712V14.8H12.5312V26H10.7712V20.96H8.88319V26H7.12319V14.8ZM19.5859 26.16C18.7219 26.16 18.0606 25.9147 17.6019 25.424C17.1433 24.9333 16.9139 24.24 16.9139 23.344V17.456C16.9139 16.56 17.1433 15.8667 17.6019 15.376C18.0606 14.8853 18.7219 14.64 19.5859 14.64C20.4499 14.64 21.1113 14.8853 21.5699 15.376C22.0286 15.8667 22.2579 16.56 22.2579 17.456V23.344C22.2579 24.24 22.0286 24.9333 21.5699 25.424C21.1113 25.9147 20.4499 26.16 19.5859 26.16ZM19.5859 24.56C20.1939 24.56 20.4979 24.192 20.4979 23.456V17.344C20.4979 16.608 20.1939 16.24 19.5859 16.24C18.9779 16.24 18.6739 16.608 18.6739 17.344V23.456C18.6739 24.192 18.9779 24.56 19.5859 24.56ZM26.2322 14.8H27.9282L28.7122 23.408H28.7442L29.5762 14.8H31.4962L32.3282 23.408H32.3602L33.1442 14.8H34.6642L33.5282 26H31.3362L30.5362 18.448H30.5042L29.7042 26H27.3682L26.2322 14.8ZM40.1929 16.4H38.3529V14.8H43.7929V16.4H41.9529V26H40.1929V16.4ZM50.3266 26.16C49.4626 26.16 48.8012 25.9147 48.3426 25.424C47.8839 24.9333 47.6546 24.24 47.6546 23.344V17.456C47.6546 16.56 47.8839 15.8667 48.3426 15.376C48.8012 14.8853 49.4626 14.64 50.3266 14.64C51.1906 14.64 51.8519 14.8853 52.3106 15.376C52.7692 15.8667 52.9986 16.56 52.9986 17.456V23.344C52.9986 24.24 52.7692 24.9333 52.3106 25.424C51.8519 25.9147 51.1906 26.16 50.3266 26.16ZM50.3266 24.56C50.9346 24.56 51.2386 24.192 51.2386 23.456V17.344C51.2386 16.608 50.9346 16.24 50.3266 16.24C49.7186 16.24 49.4146 16.608 49.4146 17.344V23.456C49.4146 24.192 49.7186 24.56 50.3266 24.56Z" fill="#F2C94C"/>
</svg>
