<svg width="45" height="42" viewBox="0 0 45 42" fill="none" xmlns="http://www.w3.org/2000/svg">
<path d="M15.2609 35.7606C15.2609 38.4348 12.3656 40.9997 8.23915 40.9997C4.1127 40.9997 1.21741 38.4348 1.21741 35.7606C1.21741 33.0864 4.1127 30.5215 8.23915 30.5215C12.3656 30.5215 15.2609 33.0864 15.2609 35.7606Z" stroke="#FA8100" stroke-width="2" stroke-linecap="round" stroke-linejoin="round"/>
<path d="M43.7827 23.2826C43.7827 25.9568 40.8874 28.5217 36.7609 28.5217C32.6345 28.5217 29.7392 25.9568 29.7392 23.2826C29.7392 20.6084 32.6345 18.0435 36.7609 18.0435C40.8874 18.0435 43.7827 20.6084 43.7827 23.2826Z" stroke="#FA8100" stroke-width="2" stroke-linecap="round" stroke-linejoin="round"/>
<path d="M14.4782 33.9783V3C14.4782 1.89543 15.3736 1 16.4782 1H40.9999C42.1045 1 42.9999 1.89543 42.9999 3V22.3913" stroke="#FA8100" stroke-width="2" stroke-linecap="round" stroke-linejoin="round"/>
</svg>
