<svg width="36" height="25" viewBox="0 0 36 25" fill="none" xmlns="http://www.w3.org/2000/svg">
<path d="M18.7974 0.0318165L11.4122 0.167736C9.02027 0.214855 6.62292 0.120615 4.27972 0.609922C0.710766 1.34207 0.459838 4.92852 0.194468 7.93686C-0.170189 12.1666 -0.0293808 16.4726 0.658414 20.6661C1.04654 23.0184 2.57377 24.4229 4.93683 24.5751C12.9106 25.1297 20.9366 25.0644 28.8923 24.8053C29.7318 24.7817 30.5784 24.6512 31.407 24.5045C35.4959 23.785 35.597 19.7201 35.8623 16.2986C36.1259 12.8426 36.0158 9.36853 35.5103 5.93432C35.1041 3.09271 34.3297 0.707787 31.055 0.477631C26.9535 0.176796 22.9459 -0.0660458 18.8335 0.0118809C18.8317 0.0318146 18.8083 0.0318165 18.7974 0.0318165ZM14.4558 7.22827C17.5464 9.00971 20.5792 10.7622 23.6517 12.5309C20.5539 14.3124 17.5284 16.0648 14.4558 17.8336V7.22827Z" fill="white"/>
</svg>
